{"accessors": [{"bufferView": 3, "componentType": 5126, "count": 2794, "max": [126.33995056152344, 209.74313354492188, 29.606111526489258], "min": [-127.27394104003906, -1.9016491174697876, -24.761211395263672], "type": "VEC3"}, {"bufferView": 3, "byteOffset": 33528, "componentType": 5126, "count": 2794, "max": [0.9997188448905945, 0.9998816847801208, 0.9996299147605896], "min": [-0.9999402761459351, -0.9999594688415527, -0.9998813271522522], "type": "VEC3"}, {"bufferView": 4, "componentType": 5126, "count": 2794, "max": [0.9999920725822449, 0.9999989867210388, 0.9998817443847656, 1.0], "min": [-0.9999993443489075, -0.9997125864028931, -0.9999984502792358, -1.0], "type": "VEC4"}, {"bufferView": 2, "componentType": 5126, "count": 2794, "max": [0.9919270277023315, 0.9887009859085083], "min": [0.0, 0.0], "type": "VEC2"}, {"bufferView": 2, "byteOffset": 22352, "componentType": 5126, "count": 2794, "max": [0.9919270277023315, 0.9887009859085083], "min": [0.0, 0.0], "type": "VEC2"}, {"bufferView": 2, "byteOffset": 44704, "componentType": 5126, "count": 2794, "max": [0.9919270277023315, 0.9887009859085083], "min": [0.0, 0.0], "type": "VEC2"}, {"bufferView": 2, "byteOffset": 67056, "componentType": 5126, "count": 2794, "max": [0.9919270277023315, 0.9887009859085083], "min": [0.0, 0.0], "type": "VEC2"}, {"bufferView": 2, "byteOffset": 89408, "componentType": 5126, "count": 2794, "max": [0.9919270277023315, 0.9887009859085083], "min": [0.0, 0.0], "type": "VEC2"}, {"bufferView": 2, "byteOffset": 111760, "componentType": 5126, "count": 2794, "max": [0.9919270277023315, 0.9887009859085083], "min": [0.0, 0.0], "type": "VEC2"}, {"bufferView": 2, "byteOffset": 134112, "componentType": 5126, "count": 2794, "max": [0.9919270277023315, 0.9887009859085083], "min": [0.0, 0.0], "type": "VEC2"}, {"bufferView": 2, "byteOffset": 156464, "componentType": 5126, "count": 2794, "max": [0.9919270277023315, 0.9887009859085083], "min": [0.0, 0.0], "type": "VEC2"}, {"bufferView": 1, "componentType": 5125, "count": 13593, "type": "SCALAR"}, {"bufferView": 5, "componentType": 5126, "count": 42, "max": [1.0, 0.0, 0.0, 0.0, 0.0, 1.0, 0.0, 0.0, 0.0, 0.0, 1.0, 0.0, 121.15599060058594, 0.0, 2.978433132171631, 1.0], "min": [1.0, 0.0, 0.0, 0.0, 0.0, 1.0, 0.0, 0.0, 0.0, 0.0, 1.0, 0.0, -121.9426498413086, -170.14390563964844, -14.129688262939453, 1.0], "type": "MAT4"}, {"bufferView": 0, "componentType": 5123, "count": 2794, "type": "VEC4"}, {"bufferView": 4, "byteOffset": 44704, "componentType": 5126, "count": 2794, "max": [1.0, 0.5, 0.3333333432674408, 0.18639585375785828], "min": [0.2929353415966034, 0.0, 0.0, 0.0], "type": "VEC4"}, {"bufferView": 6, "componentType": 5126, "count": 233, "max": [8.833333015441895], "min": [0.0], "type": "SCALAR"}, {"bufferView": 7, "componentType": 5126, "count": 233, "max": [-4.260094499386469e-08, 8.300682067871094, 3.339198112487793], "min": [-4.260097341557412e-08, 8.300682067871094, 3.339198112487793], "type": "VEC3"}, {"bufferView": 6, "byteOffset": 932, "componentType": 5126, "count": 266, "max": [8.833333015441895], "min": [0.0], "type": "SCALAR"}, {"bufferView": 8, "componentType": 5126, "count": 266, "max": [0.135588139295578, 0.3154814541339874, 0.12103236466646194, 0.9997052550315857], "min": [-0.3113037943840027, -0.194568932056427, -0.1595873236656189, 0.9335938692092896], "type": "VEC4"}, {"bufferView": 6, "byteOffset": 1996, "componentType": 5126, "count": 246, "max": [8.833333015441895], "min": [0.0], "type": "SCALAR"}, {"bufferView": 7, "byteOffset": 2796, "componentType": 5126, "count": 246, "max": [1.4210854715202004e-14, 26.661542892456055, -1.3575159311294556], "min": [-1.4210854715202004e-14, 26.661542892456055, -1.3575159311294556], "type": "VEC3"}, {"bufferView": 6, "byteOffset": 2980, "componentType": 5126, "count": 266, "max": [8.833333015441895], "min": [0.0], "type": "SCALAR"}, {"bufferView": 8, "byteOffset": 4256, "componentType": 5126, "count": 266, "max": [0.02793445810675621, 0.03011852502822876, 0.026133906096220016, 0.9999792575836182], "min": [-0.10595064610242844, -0.021721303462982178, -0.04952092841267586, 0.9937403798103333], "type": "VEC4"}, {"bufferView": 6, "byteOffset": 4044, "componentType": 5126, "count": 266, "max": [8.833333015441895], "min": [0.0], "type": "SCALAR"}, {"bufferView": 8, "byteOffset": 8512, "componentType": 5126, "count": 266, "max": [1.7320432732503832e-07, 0.06481310725212097, 0.12985028326511383, 0.9999992847442627], "min": [-1.6778437839093385e-07, -0.01326676830649376, -0.6343706250190735, 0.770307183265686], "type": "VEC4"}, {"bufferView": 6, "byteOffset": 5108, "componentType": 5126, "count": 266, "max": [8.833333015441895], "min": [0.0], "type": "SCALAR"}, {"bufferView": 8, "byteOffset": 12768, "componentType": 5126, "count": 266, "max": [8.760036394050985e-07, 0.06481489539146423, -9.556284567224793e-06, 1.0], "min": [-6.475194425092923e-08, -7.551405190042715e-08, -0.634394645690918, 0.7702872157096863], "type": "VEC4"}, {"bufferView": 6, "byteOffset": 6172, "componentType": 5126, "count": 266, "max": [8.833333015441895], "min": [0.0], "type": "SCALAR"}, {"bufferView": 8, "byteOffset": 17024, "componentType": 5126, "count": 266, "max": [0.023305607959628105, 0.091917023062706, 0.26831480860710144, 0.9999831914901733], "min": [-0.01850198209285736, -0.0735059529542923, -0.7657027840614319, 0.6365866661071777], "type": "VEC4"}, {"bufferView": 6, "byteOffset": 7236, "componentType": 5126, "count": 266, "max": [8.833333015441895], "min": [0.0], "type": "SCALAR"}, {"bufferView": 8, "byteOffset": 21280, "componentType": 5126, "count": 266, "max": [0.08057823032140732, 0.2917395234107971, 0.38199225068092346, 0.9961575269699097], "min": [-0.10217732191085815, -0.29535388946533203, 0.06591931730508804, 0.9077993631362915], "type": "VEC4"}, {"bufferView": 6, "byteOffset": 8300, "componentType": 5126, "count": 266, "max": [8.833333015441895], "min": [0.0], "type": "SCALAR"}, {"bufferView": 8, "byteOffset": 25536, "componentType": 5126, "count": 266, "max": [0.18489596247673035, 0.3882354199886322, 0.28536054491996765, 0.9966226816177368], "min": [-0.002994696842506528, -0.11685322970151901, 0.03045560047030449, 0.9011608958244324], "type": "VEC4"}, {"bufferView": 6, "byteOffset": 9364, "componentType": 5126, "count": 266, "max": [8.833333015441895], "min": [0.0], "type": "SCALAR"}, {"bufferView": 8, "byteOffset": 29792, "componentType": 5126, "count": 266, "max": [0.07544223219156265, 0.2770935297012329, 0.06341677159070969, 0.9999113082885742], "min": [-0.6658943295478821, -0.03121965378522873, -0.3357519507408142, 0.6698547005653381], "type": "VEC4"}, {"bufferView": 6, "byteOffset": 10428, "componentType": 5126, "count": 266, "max": [8.833333015441895], "min": [0.0], "type": "SCALAR"}, {"bufferView": 8, "byteOffset": 34048, "componentType": 5126, "count": 266, "max": [0.4264826774597168, 0.23166976869106293, 0.6438207626342773, 0.9991571307182312], "min": [-0.32835906744003296, -0.28688475489616394, -0.0998305231332779, 0.7018761038780212], "type": "VEC4"}, {"bufferView": 6, "byteOffset": 11492, "componentType": 5126, "count": 271, "max": [8.833333015441895], "min": [0.0], "type": "SCALAR"}, {"bufferView": 8, "byteOffset": 38304, "componentType": 5126, "count": 271, "max": [0.012065167538821697, 0.008246068842709064, 0.014530053362250328, 0.9998863935470581], "min": [0.00018785450083669275, -0.8184439539909363, 0.008344478905200958, 0.5743990540504456], "type": "VEC4"}, {"bufferView": 6, "byteOffset": 12576, "componentType": 5126, "count": 267, "max": [8.833333015441895], "min": [0.0], "type": "SCALAR"}, {"bufferView": 8, "byteOffset": 42640, "componentType": 5126, "count": 267, "max": [0.2878493666648865, -0.023085497319698334, 0.03892151266336441, 0.9730503559112549], "min": [-0.5321974158287048, -0.6877724528312683, -0.5489619374275208, 0.6576253175735474], "type": "VEC4"}, {"bufferView": 6, "byteOffset": 13644, "componentType": 5126, "count": 266, "max": [8.833333015441895], "min": [0.0], "type": "SCALAR"}, {"bufferView": 8, "byteOffset": 46912, "componentType": 5126, "count": 266, "max": [0.03181610628962517, 0.04110856354236603, 0.1252128928899765, 0.9996926784515381], "min": [-0.010819178074598312, -0.0975213572382927, -0.15309472382068634, 0.9879441857337952], "type": "VEC4"}, {"bufferView": 6, "byteOffset": 14708, "componentType": 5126, "count": 266, "max": [8.833333015441895], "min": [0.0], "type": "SCALAR"}, {"bufferView": 8, "byteOffset": 51168, "componentType": 5126, "count": 266, "max": [0.00015387915482278913, 0.01054351031780243, 0.6355794072151184, 0.9999994039535522], "min": [-3.1482268241234124e-05, -0.05156379193067551, -0.13010276854038239, 0.7703115940093994], "type": "VEC4"}, {"bufferView": 6, "byteOffset": 15772, "componentType": 5126, "count": 266, "max": [8.833333015441895], "min": [0.0], "type": "SCALAR"}, {"bufferView": 8, "byteOffset": 55424, "componentType": 5126, "count": 266, "max": [0.00015357982192654163, 1.3864931133866776e-05, 0.6355922818183899, 1.0], "min": [-6.40879775914982e-08, -0.05154942348599434, -2.1245142534098704e-07, 0.7703019380569458], "type": "VEC4"}, {"bufferView": 6, "byteOffset": 16836, "componentType": 5126, "count": 266, "max": [8.833333015441895], "min": [0.0], "type": "SCALAR"}, {"bufferView": 8, "byteOffset": 59680, "componentType": 5126, "count": 266, "max": [0.02249791845679283, 0.09014749526977539, 0.8649631142616272, 0.9999927878379822], "min": [-0.017897862941026688, -0.0821889117360115, -0.16544494032859802, 0.4948660135269165], "type": "VEC4"}, {"bufferView": 6, "byteOffset": 17900, "componentType": 5126, "count": 266, "max": [8.833333015441895], "min": [0.0], "type": "SCALAR"}, {"bufferView": 8, "byteOffset": 63936, "componentType": 5126, "count": 266, "max": [0.08727041631937027, 0.14533166587352753, -0.05989374965429306, 0.9968053698539734], "min": [-0.09896557778120041, -0.3190498650074005, -0.28197935223579407, 0.9034234881401062], "type": "VEC4"}, {"bufferView": 6, "byteOffset": 18964, "componentType": 5126, "count": 266, "max": [8.833333015441895], "min": [0.0], "type": "SCALAR"}, {"bufferView": 8, "byteOffset": 68192, "componentType": 5126, "count": 266, "max": [0.1815621554851532, 0.17633526027202606, -0.04281347244977951, 0.9945694208145142], "min": [0.014467572793364525, -0.40037134289741516, -0.320976585149765, 0.894719123840332], "type": "VEC4"}, {"bufferView": 6, "byteOffset": 20028, "componentType": 5126, "count": 266, "max": [8.833333015441895], "min": [0.0], "type": "SCALAR"}, {"bufferView": 8, "byteOffset": 72448, "componentType": 5126, "count": 266, "max": [0.3144489526748657, 0.14731910824775696, 0.4319392740726471, 0.9997220039367676], "min": [-0.6901782751083374, -0.25462621450424194, -0.10325922816991806, 0.5748948454856873], "type": "VEC4"}, {"bufferView": 6, "byteOffset": 21092, "componentType": 5126, "count": 266, "max": [8.833333015441895], "min": [0.0], "type": "SCALAR"}, {"bufferView": 8, "byteOffset": 76704, "componentType": 5126, "count": 266, "max": [0.5356045365333557, 0.36262577772140503, 0.2323216050863266, 0.999896228313446], "min": [-0.33795076608657837, -0.14540107548236847, -0.7076418399810791, 0.6602874994277954], "type": "VEC4"}, {"bufferView": 6, "byteOffset": 22156, "componentType": 5126, "count": 363, "max": [8.833333015441895], "min": [0.0], "type": "SCALAR"}, {"bufferView": 8, "byteOffset": 80960, "componentType": 5126, "count": 363, "max": [0.012322574853897095, 0.9115030169487, -0.006766323931515217, 0.9998536109924316], "min": [6.586910603800789e-05, -0.02116502821445465, -0.016470549628138542, 0.41105303168296814], "type": "VEC4"}, {"bufferView": 6, "byteOffset": 23608, "componentType": 5126, "count": 266, "max": [8.833333015441895], "min": [0.0], "type": "SCALAR"}, {"bufferView": 8, "byteOffset": 86768, "componentType": 5126, "count": 266, "max": [0.25732067227363586, 0.6301626563072205, 0.604651153087616, 0.9743440747261047], "min": [-0.4682493805885315, -0.39544087648391724, -0.024830317124724388, 0.6287505626678467], "type": "VEC4"}, {"bufferView": 6, "byteOffset": 24672, "componentType": 5126, "count": 266, "max": [8.833333015441895], "min": [0.0], "type": "SCALAR"}, {"bufferView": 8, "byteOffset": 91024, "componentType": 5126, "count": 266, "max": [0.021997349336743355, 0.1408863216638565, 0.19850575923919678, 0.9998608231544495], "min": [-0.01174157578498125, -0.11021903902292252, -0.10484546422958374, 0.9770896434783936], "type": "VEC4"}, {"bufferView": 6, "byteOffset": 25736, "componentType": 5126, "count": 234, "max": [8.833333015441895], "min": [0.0], "type": "SCALAR"}, {"bufferView": 7, "byteOffset": 5748, "componentType": 5126, "count": 234, "max": [1.4210854715202004e-14, 10.08499813079834, 0.3027128577232361], "min": [-1.4210854715202004e-14, 10.08499813079834, 0.3027128577232361], "type": "VEC3"}, {"bufferView": 6, "byteOffset": 26672, "componentType": 5126, "count": 266, "max": [8.833333015441895], "min": [0.0], "type": "SCALAR"}, {"bufferView": 8, "byteOffset": 95280, "componentType": 5126, "count": 266, "max": [0.08220969140529633, 0.025596240535378456, 0.024301031604409218, 0.9999799728393555], "min": [-0.034796711057424545, -0.06934371590614319, -0.02282303385436535, 0.996430516242981], "type": "VEC4"}, {"bufferView": 6, "byteOffset": 27736, "componentType": 5126, "count": 233, "max": [8.833333015441895], "min": [0.0], "type": "SCALAR"}, {"bufferView": 7, "byteOffset": 8556, "componentType": 5126, "count": 233, "max": [1.4210854715202004e-14, 10.37251091003418, 0.04768211767077446], "min": [-1.4210854715202004e-14, 10.37251091003418, 0.04768211767077446], "type": "VEC3"}, {"bufferView": 6, "byteOffset": 28668, "componentType": 5126, "count": 266, "max": [8.833333015441895], "min": [0.0], "type": "SCALAR"}, {"bufferView": 8, "byteOffset": 99536, "componentType": 5126, "count": 266, "max": [0.08184640854597092, 0.025896389037370682, 0.02337845414876938, 0.9999797940254211], "min": [-0.0347912423312664, -0.06922999769449234, -0.022351283580064774, 0.9964371919631958], "type": "VEC4"}, {"bufferView": 6, "byteOffset": 29732, "componentType": 5126, "count": 230, "max": [8.833333015441895], "min": [0.0], "type": "SCALAR"}, {"bufferView": 7, "byteOffset": 11352, "componentType": 5126, "count": 230, "max": [1.4210854715202004e-14, 14.652450561523438, 0.43246859312057495], "min": [-1.4210854715202004e-14, 14.652450561523438, 0.43246859312057495], "type": "VEC3"}, {"bufferView": 6, "byteOffset": 30652, "componentType": 5126, "count": 266, "max": [8.833333015441895], "min": [0.0], "type": "SCALAR"}, {"bufferView": 8, "byteOffset": 103792, "componentType": 5126, "count": 266, "max": [0.30521631240844727, 0.11716648191213608, 0.0978417620062828, 0.9997825026512146], "min": [-0.006177725736051798, -0.24531179666519165, -0.08711904287338257, 0.9435908198356628], "type": "VEC4"}, {"bufferView": 6, "byteOffset": 31716, "componentType": 5126, "count": 266, "max": [8.833333015441895], "min": [0.0], "type": "SCALAR"}, {"bufferView": 8, "byteOffset": 108048, "componentType": 5126, "count": 266, "max": [0.0800030380487442, 0.06943774968385696, 0.2944164574146271, 0.9999994039535522], "min": [-0.46309179067611694, -0.051060229539871216, -0.2912216782569885, 0.8826510310173035], "type": "VEC4"}, {"bufferView": 6, "byteOffset": 32780, "componentType": 5126, "count": 266, "max": [8.833333015441895], "min": [0.0], "type": "SCALAR"}, {"bufferView": 8, "byteOffset": 112304, "componentType": 5126, "count": 266, "max": [0.36111176013946533, 0.2771313488483429, 0.11712376773357391, 0.9999958276748657], "min": [-0.3083885908126831, -0.0844852477312088, -0.27336597442626953, 0.9219844341278076], "type": "VEC4"}, {"bufferView": 6, "byteOffset": 33844, "componentType": 5126, "count": 266, "max": [8.833333015441895], "min": [0.0], "type": "SCALAR"}, {"bufferView": 8, "byteOffset": 116560, "componentType": 5126, "count": 266, "max": [0.9283036589622498, 0.13306377828121185, 0.12084490805864334, 0.99916672706604], "min": [-0.04496365785598755, -0.1096423864364624, -0.08753958344459534, 0.367681086063385], "type": "VEC4"}, {"bufferView": 6, "byteOffset": 34908, "componentType": 5126, "count": 266, "max": [8.833333015441895], "min": [0.0], "type": "SCALAR"}, {"bufferView": 8, "byteOffset": 120816, "componentType": 5126, "count": 266, "max": [0.133965864777565, 0.22509722411632538, 0.4738595485687256, 0.9990620613098145], "min": [-0.8139218091964722, -0.15066248178482056, -0.05905071645975113, 0.5238637924194336], "type": "VEC4"}, {"bufferView": 6, "byteOffset": 35972, "componentType": 5126, "count": 266, "max": [8.833333015441895], "min": [0.0], "type": "SCALAR"}, {"bufferView": 8, "byteOffset": 125072, "componentType": 5126, "count": 266, "max": [0.25044387578964233, 0.03275156021118164, 0.3984094262123108, 1.0], "min": [-0.6763737201690674, -0.19094139337539673, -0.35781723260879517, 0.7333661317825317], "type": "VEC4"}, {"bufferView": 6, "byteOffset": 37036, "componentType": 5126, "count": 266, "max": [8.833333015441895], "min": [0.0], "type": "SCALAR"}, {"bufferView": 8, "byteOffset": 129328, "componentType": 5126, "count": 266, "max": [0.4995799660682678, 0.26526933908462524, 0.21602904796600342, 0.9998947381973267], "min": [-0.3469061553478241, -0.25016510486602783, -0.21756914258003235, 0.8456152081489563], "type": "VEC4"}, {"bufferView": 6, "byteOffset": 38100, "componentType": 5126, "count": 266, "max": [8.833333015441895], "min": [0.0], "type": "SCALAR"}, {"bufferView": 8, "byteOffset": 133584, "componentType": 5126, "count": 266, "max": [0.9543504118919373, 0.09666791558265686, 0.12426257878541946, 0.9995632171630859], "min": [-0.07854725420475006, -0.09590747207403183, -0.12785443663597107, 0.27430760860443115], "type": "VEC4"}, {"bufferView": 6, "byteOffset": 39164, "componentType": 5126, "count": 266, "max": [8.833333015441895], "min": [0.0], "type": "SCALAR"}, {"bufferView": 8, "byteOffset": 137840, "componentType": 5126, "count": 266, "max": [0.9327462315559387, 0.26144856214523315, 0.4336203634738922, 0.9993712902069092], "min": [-0.8119454383850098, -0.19922611117362976, -0.6616939306259155, -0.48014581203460693], "type": "VEC4"}, {"bufferView": 6, "byteOffset": 40228, "componentType": 5126, "count": 628, "max": [8.833333015441895], "min": [0.0], "type": "SCALAR"}, {"bufferView": 7, "byteOffset": 14112, "componentType": 5126, "count": 628, "max": [1.890766978263855, 121.82230377197266, 69.81339263916016], "min": [-67.34156036376953, 16.353424072265625, -17.73648452758789], "type": "VEC3"}, {"bufferView": 6, "byteOffset": 42740, "componentType": 5126, "count": 628, "max": [8.833333015441895], "min": [0.0], "type": "SCALAR"}, {"bufferView": 8, "byteOffset": 142096, "componentType": 5126, "count": 628, "max": [0.9448512196540833, 0.9981861114501953, 0.17895980179309845, 0.9990568161010742], "min": [-0.1462996006011963, -0.8626670241355896, -0.20992009341716766, -0.49702563881874084], "type": "VEC4"}], "animations": [{"channels": [{"sampler": 0, "target": {"node": 12, "path": "translation"}}, {"sampler": 1, "target": {"node": 12, "path": "rotation"}}, {"sampler": 2, "target": {"node": 11, "path": "translation"}}, {"sampler": 3, "target": {"node": 11, "path": "rotation"}}, {"sampler": 4, "target": {"node": 20, "path": "rotation"}}, {"sampler": 5, "target": {"node": 19, "path": "rotation"}}, {"sampler": 6, "target": {"node": 18, "path": "rotation"}}, {"sampler": 7, "target": {"node": 24, "path": "rotation"}}, {"sampler": 8, "target": {"node": 23, "path": "rotation"}}, {"sampler": 9, "target": {"node": 22, "path": "rotation"}}, {"sampler": 10, "target": {"node": 17, "path": "rotation"}}, {"sampler": 11, "target": {"node": 16, "path": "rotation"}}, {"sampler": 12, "target": {"node": 15, "path": "rotation"}}, {"sampler": 13, "target": {"node": 14, "path": "rotation"}}, {"sampler": 14, "target": {"node": 32, "path": "rotation"}}, {"sampler": 15, "target": {"node": 31, "path": "rotation"}}, {"sampler": 16, "target": {"node": 30, "path": "rotation"}}, {"sampler": 17, "target": {"node": 36, "path": "rotation"}}, {"sampler": 18, "target": {"node": 35, "path": "rotation"}}, {"sampler": 19, "target": {"node": 34, "path": "rotation"}}, {"sampler": 20, "target": {"node": 29, "path": "rotation"}}, {"sampler": 21, "target": {"node": 28, "path": "rotation"}}, {"sampler": 22, "target": {"node": 27, "path": "rotation"}}, {"sampler": 23, "target": {"node": 26, "path": "rotation"}}, {"sampler": 24, "target": {"node": 10, "path": "translation"}}, {"sampler": 25, "target": {"node": 10, "path": "rotation"}}, {"sampler": 26, "target": {"node": 9, "path": "translation"}}, {"sampler": 27, "target": {"node": 9, "path": "rotation"}}, {"sampler": 28, "target": {"node": 8, "path": "translation"}}, {"sampler": 29, "target": {"node": 8, "path": "rotation"}}, {"sampler": 30, "target": {"node": 41, "path": "rotation"}}, {"sampler": 31, "target": {"node": 40, "path": "rotation"}}, {"sampler": 32, "target": {"node": 39, "path": "rotation"}}, {"sampler": 33, "target": {"node": 38, "path": "rotation"}}, {"sampler": 34, "target": {"node": 46, "path": "rotation"}}, {"sampler": 35, "target": {"node": 45, "path": "rotation"}}, {"sampler": 36, "target": {"node": 44, "path": "rotation"}}, {"sampler": 37, "target": {"node": 43, "path": "rotation"}}, {"sampler": 38, "target": {"node": 7, "path": "translation"}}, {"sampler": 39, "target": {"node": 7, "path": "rotation"}}], "name": "mixamo.com", "samplers": [{"input": 15, "interpolation": "LINEAR", "output": 16}, {"input": 17, "interpolation": "LINEAR", "output": 18}, {"input": 19, "interpolation": "LINEAR", "output": 20}, {"input": 21, "interpolation": "LINEAR", "output": 22}, {"input": 23, "interpolation": "LINEAR", "output": 24}, {"input": 25, "interpolation": "LINEAR", "output": 26}, {"input": 27, "interpolation": "LINEAR", "output": 28}, {"input": 29, "interpolation": "LINEAR", "output": 30}, {"input": 31, "interpolation": "LINEAR", "output": 32}, {"input": 33, "interpolation": "LINEAR", "output": 34}, {"input": 35, "interpolation": "LINEAR", "output": 36}, {"input": 37, "interpolation": "LINEAR", "output": 38}, {"input": 39, "interpolation": "LINEAR", "output": 40}, {"input": 41, "interpolation": "LINEAR", "output": 42}, {"input": 43, "interpolation": "LINEAR", "output": 44}, {"input": 45, "interpolation": "LINEAR", "output": 46}, {"input": 47, "interpolation": "LINEAR", "output": 48}, {"input": 49, "interpolation": "LINEAR", "output": 50}, {"input": 51, "interpolation": "LINEAR", "output": 52}, {"input": 53, "interpolation": "LINEAR", "output": 54}, {"input": 55, "interpolation": "LINEAR", "output": 56}, {"input": 57, "interpolation": "LINEAR", "output": 58}, {"input": 59, "interpolation": "LINEAR", "output": 60}, {"input": 61, "interpolation": "LINEAR", "output": 62}, {"input": 63, "interpolation": "LINEAR", "output": 64}, {"input": 65, "interpolation": "LINEAR", "output": 66}, {"input": 67, "interpolation": "LINEAR", "output": 68}, {"input": 69, "interpolation": "LINEAR", "output": 70}, {"input": 71, "interpolation": "LINEAR", "output": 72}, {"input": 73, "interpolation": "LINEAR", "output": 74}, {"input": 75, "interpolation": "LINEAR", "output": 76}, {"input": 77, "interpolation": "LINEAR", "output": 78}, {"input": 79, "interpolation": "LINEAR", "output": 80}, {"input": 81, "interpolation": "LINEAR", "output": 82}, {"input": 83, "interpolation": "LINEAR", "output": 84}, {"input": 85, "interpolation": "LINEAR", "output": 86}, {"input": 87, "interpolation": "LINEAR", "output": 88}, {"input": 89, "interpolation": "LINEAR", "output": 90}, {"input": 91, "interpolation": "LINEAR", "output": 92}, {"input": 93, "interpolation": "LINEAR", "output": 94}]}], "asset": {"extras": {"author": "pooiloui2 (https://sketchfab.com/pooiloui2)", "license": "CC-BY-4.0 (http://creativecommons.org/licenses/by/4.0/)", "source": "https://sketchfab.com/3d-models/castle-guard-animated-and-rigged-265fe550e8364fee8996022c72ae072d", "title": "Castle Guard (Animated and Rigged)"}, "generator": "Sketchfab-12.68.0", "version": "2.0"}, "bufferViews": [{"buffer": 0, "byteLength": 22352, "byteStride": 8, "name": "shortBufferViews", "target": 34962}, {"buffer": 0, "byteLength": 54372, "byteOffset": 22352, "name": "floatBufferViews", "target": 34963}, {"buffer": 0, "byteLength": 178816, "byteOffset": 76724, "byteStride": 8, "name": "floatBufferViews", "target": 34962}, {"buffer": 0, "byteLength": 67056, "byteOffset": 255540, "byteStride": 12, "name": "floatBufferViews", "target": 34962}, {"buffer": 0, "byteLength": 89408, "byteOffset": 322596, "byteStride": 16, "name": "floatBufferViews", "target": 34962}, {"buffer": 0, "byteLength": 2688, "byteOffset": 412004, "name": "floatBufferViews"}, {"buffer": 0, "byteLength": 45252, "byteOffset": 414692, "name": "floatBufferViews"}, {"buffer": 0, "byteLength": 21648, "byteOffset": 459944, "byteStride": 12, "name": "floatBufferViews"}, {"buffer": 0, "byteLength": 152144, "byteOffset": 481592, "byteStride": 16, "name": "floatBufferViews"}], "buffers": [{"byteLength": 633736, "uri": "scene.bin"}], "images": [{"uri": "textures/Guard_02_diffuse.png", "mimeType": "image/png"}], "materials": [{"doubleSided": true, "name": "Guard_02", "pbrMetallicRoughness": {"baseColorFactor": [1, 1, 1, 1], "baseColorTexture": {"index": 0}, "metallicFactor": 0.1, "roughnessFactor": 0.85}}], "meshes": [{"name": "Guard02_Guard_02_0", "primitives": [{"attributes": {"JOINTS_0": 13, "NORMAL": 1, "POSITION": 0, "TANGENT": 2, "TEXCOORD_0": 3, "TEXCOORD_1": 4, "TEXCOORD_2": 5, "TEXCOORD_3": 6, "TEXCOORD_4": 7, "TEXCOORD_5": 3, "TEXCOORD_6": 3, "TEXCOORD_7": 8, "TEXCOORD_8": 9, "TEXCOORD_9": 10, "WEIGHTS_0": 14}, "indices": 11, "material": 0, "mode": 4}]}], "nodes": [{"children": [1], "matrix": [0.015040786936879158, 0.0, 0.0, 0.0, 0.0, 3.3397255931609045e-18, -0.015040786936879158, 0.0, 0.0, 0.015040786936879158, 3.3397255931609045e-18, 0.0, 0.0, 0.0, 0.0, 1.0], "name": "Sketchfab_model"}, {"children": [2], "matrix": [1.0, 0.0, 0.0, 0.0, 0.0, 0.0, 1.0, 0.0, 0.0, -1.0, 0.0, 0.0, 0.0, 0.0, 0.0, 1.0], "name": "cff5023d8f2d43c29ecdb5e5a32b7cf7.fbx"}, {"children": [3], "name": "Object_2"}, {"children": [4], "name": "RootNode"}, {"children": [5, 6, 48], "name": "Object_4"}, {"children": [7], "name": "_rootJoint"}, {"mesh": 0, "name": "Object_6", "skin": 0}, {"children": [8, 38, 43], "name": "Hips_01", "translation": [-0.0006002013105899096, 100.07171630859375, -0.9221225380897522]}, {"children": [9], "name": "Spine_02", "translation": [0.0, 14.652450561523438, 0.43246859312057495]}, {"children": [10], "name": "Spine1_03", "translation": [5.237780695277472e-16, 10.37251091003418, 0.04768211767077446]}, {"children": [11, 14, 26], "name": "Spine2_04", "translation": [-3.275374763078709e-16, 10.08499813079834, 0.3027128577232361]}, {"children": [12], "name": "Neck_05", "translation": [-6.396792817664476e-17, 26.661542892456055, -1.3575159311294556]}, {"children": [13], "name": "Head_06", "translation": [-4.26009592047194e-08, 8.300682067871094, 3.339198112487793]}, {"name": "HeadTop_End_07", "translation": [-1.8291414960458496e-07, 35.6883659362793, 4.5115132331848145]}, {"children": [15], "name": "LeftShoulder_08", "translation": [14.211881637573242, 23.220134735107422, -1.399876356124878]}, {"children": [16], "name": "LeftArm_09", "translation": [10.341975212097168, -5.702349662780762, -0.09012308716773987]}, {"children": [17], "name": "LeftForeArm_010", "translation": [31.83320426940918, 0.9255561828613281, -1.3488141298294067]}, {"children": [18, 22], "name": "LeftHand_011", "translation": [32.55360794067383, -0.00015320854436140507, 2.6163708753301762e-05]}, {"children": [19], "name": "LeftHandIndex1_012", "translation": [22.748994827270508, -0.0001162641347036697, 4.144727063248865e-05]}, {"children": [20], "name": "LeftHandIndex2_013", "translation": [5.146162509918213, -6.943637708900496e-05, -3.105556243099272e-05]}, {"children": [21], "name": "LeftHandIndex3_014", "translation": [5.107420921325684, -1.7654198018135503e-05, -3.733379708137363e-05]}, {"name": "LeftHandIndex4_015", "translation": [3.1996843814849854, -2.6007694032159634e-05, 3.414287493797019e-05]}, {"children": [23], "name": "LeftHandThumb1_016", "translation": [10.400452613830566, -3.7726004123687744, 7.404654502868652]}, {"children": [24], "name": "LeftHandThumb2_017", "translation": [3.911566972732544, -2.258368730545044, 2.258397340774536]}, {"children": [25], "name": "LeftHandThumb3_018", "translation": [4.490524768829346, -2.5926101207733154, 2.5925962924957275]}, {"name": "LeftHandThumb4_019", "translation": [3.418212413787842, -1.9735198020935059, 1.9734607934951782]}, {"children": [27], "name": "RightShoulder_020", "translation": [-14.211881637573242, 23.220134735107422, -1.399876356124878]}, {"children": [28], "name": "RightArm_021", "translation": [-10.346424102783203, -5.694272518157959, -0.09012438356876373]}, {"children": [29], "name": "RightForeArm_00", "translation": [-31.83246612548828, 0.9504417181015015, -1.3489460945129395]}, {"children": [30, 34], "name": "RightHand_022", "translation": [-32.88759231567383, -0.1022852435708046, -0.00012438294652383775]}, {"children": [31], "name": "RightHandIndex1_023", "translation": [-21.103408813476562, -0.06561688333749771, -6.765489524696022e-05]}, {"children": [32], "name": "RightHandIndex2_024", "translation": [-5.741777420043945, -0.017822986468672752, 2.3751083062961698e-05]}, {"children": [33], "name": "RightHandIndex3_025", "translation": [-5.031845569610596, -0.01559945847839117, -5.9087073168484494e-05]}, {"name": "RightHandIndex4_026", "translation": [-5.4053449630737305, -0.01677159033715725, -4.6922846195229795e-06]}, {"children": [35], "name": "RightHandThumb1_027", "translation": [-10.355576515197754, -3.8904361724853516, 4.774279594421387]}, {"children": [36], "name": "RightHandThumb2_028", "translation": [-4.461721420288086, -2.5945229530334473, 2.5806097984313965]}, {"children": [37], "name": "RightHandThumb3_029", "translation": [-4.752456188201904, -2.7635655403137207, 2.7487568855285645]}, {"name": "RightHandThumb4_030", "translation": [-3.4120733737945557, -1.9841121435165405, 1.9734632968902588]}, {"children": [39], "name": "LeftUpLeg_031", "translation": [13.02590560913086, -7.138230800628662, 0.8584078550338745]}, {"children": [40], "name": "LeftLeg_032", "translation": [0.12414708733558655, -35.76580047607422, 3.144899606704712]}, {"children": [41], "name": "LeftFoot_033", "translation": [-0.11158314347267151, -40.173728942871094, -5.708637714385986]}, {"children": [42], "name": "LeftToeBase_034", "translation": [1.2843687534332275, -16.830665588378906, 16.75714111328125]}, {"name": "LeftToe_End_035", "translation": [0.1147015169262886, 0.39928701519966125, 13.376599311828613]}, {"children": [44], "name": "RightUpLeg_036", "translation": [-13.02590560913086, -7.138230800628662, 0.8584078550338745]}, {"children": [45], "name": "RightLeg_037", "translation": [-0.1124616339802742, -35.76585388183594, 3.144745349884033]}, {"children": [46], "name": "RightFoot_038", "translation": [0.12491534650325775, -40.173709869384766, -5.7084832191467285]}, {"children": [47], "name": "RightToeBase_039", "translation": [-1.284368634223938, -16.830665588378906, 16.75714111328125]}, {"name": "RightToe_End_040", "translation": [-0.1147015318274498, 0.39928677678108215, 13.376599311828613]}, {"name": "Guard02"}], "samplers": [{"magFilter": 9729, "minFilter": 9987, "wrapS": 10497, "wrapT": 10497}], "scene": 0, "scenes": [{"name": "Sketchfab_Scene", "nodes": [0]}], "skins": [{"inverseBindMatrices": 12, "joints": [5, 7, 8, 9, 10, 11, 12, 13, 14, 15, 16, 17, 18, 19, 20, 21, 22, 23, 24, 25, 26, 27, 28, 29, 30, 31, 32, 33, 34, 35, 36, 37, 38, 39, 40, 41, 42, 43, 44, 45, 46, 47], "skeleton": 5}], "textures": [{"sampler": 0}]}