{"accessors": [{"bufferView": 3, "componentType": 5126, "count": 3526, "max": [67.62772369384766, 184.350341796875, 27.7777156829834], "min": [-67.62772369384766, -0.15799713134765625, -26.64707374572754], "type": "VEC3"}, {"bufferView": 3, "byteOffset": 42312, "componentType": 5126, "count": 3526, "max": [0.9999054074287415, 0.9996546506881714, 0.9999960660934448], "min": [-0.9999054074287415, -1.0, -0.9997872710227966], "type": "VEC3"}, {"bufferView": 4, "componentType": 5126, "count": 3526, "max": [0.9999969601631165, 0.999660849571228, 0.9993301630020142, 1.0], "min": [-1.0, -0.9990344047546387, -0.9999327659606934, -1.0], "type": "VEC4"}, {"bufferView": 2, "componentType": 5126, "count": 3526, "max": [0.998082160949707, 0.9886605143547058], "min": [0.004820110276341438, 0.004815220832824707], "type": "VEC2"}, {"bufferView": 2, "byteOffset": 28208, "componentType": 5126, "count": 3526, "max": [0.9923171997070312, 0.9923171997070312], "min": [0.007682827766984701, 0.0159376859664917], "type": "VEC2"}, {"bufferView": 1, "componentType": 5125, "count": 17022, "type": "SCALAR"}, {"bufferView": 3, "byteOffset": 84624, "componentType": 5126, "count": 1855, "max": [7.975009918212891, 182.5076141357422, 21.130704879760742], "min": [-7.975009918212891, 151.31861877441406, -2.6588268280029297], "type": "VEC3"}, {"bufferView": 3, "byteOffset": 106884, "componentType": 5126, "count": 1855, "max": [1.0, 1.0, 1.0], "min": [-1.0, -1.0, -1.0], "type": "VEC3"}, {"bufferView": 4, "byteOffset": 56416, "componentType": 5126, "count": 1855, "max": [1.0, 0.9894724488258362, 0.9998899102210999, 1.0], "min": [-1.0, -0.9839733242988586, -0.9998853206634521, -1.0], "type": "VEC4"}, {"bufferView": 2, "byteOffset": 56416, "componentType": 5126, "count": 1855, "max": [0.9928812384605408, 0.9928812384605408], "min": [0.007118746638298035, 0.024914145469665527], "type": "VEC2"}, {"bufferView": 2, "byteOffset": 71256, "componentType": 5126, "count": 1855, "max": [0.9854114651679993, 0.9854114651679993], "min": [0.014588532969355583, 0.1089630126953125], "type": "VEC2"}, {"bufferView": 1, "byteOffset": 68088, "componentType": 5125, "count": 10131, "type": "SCALAR"}, {"bufferView": 3, "byteOffset": 129144, "componentType": 5126, "count": 1824, "max": [2.2742648124694824, 13.972341537475586, 67.3913803100586], "min": [-2.6600751876831055, -10.814687728881836, -14.847370147705078], "type": "VEC3"}, {"bufferView": 3, "byteOffset": 151032, "componentType": 5126, "count": 1824, "max": [1.0, 1.0, 1.0], "min": [-1.0, -1.0, -1.0], "type": "VEC3"}, {"bufferView": 4, "byteOffset": 86096, "componentType": 5126, "count": 1824, "max": [1.0, 1.0, 1.0, 1.0], "min": [-1.0, -1.0, -1.0, -1.0], "type": "VEC4"}, {"bufferView": 2, "byteOffset": 86096, "componentType": 5126, "count": 1824, "max": [0.9951928853988647, 0.9909697771072388], "min": [0.0027010818012058735, 0.0027042627334594727], "type": "VEC2"}, {"bufferView": 2, "byteOffset": 100688, "componentType": 5126, "count": 1824, "max": [0.9951928853988647, 0.9909697771072388], "min": [0.0027010818012058735, 0.0027042627334594727], "type": "VEC2"}, {"bufferView": 1, "byteOffset": 108612, "componentType": 5125, "count": 4830, "type": "SCALAR"}, {"bufferView": 3, "byteOffset": 172920, "componentType": 5126, "count": 152, "max": [1.633213758468628, 12.642765998840332, 3.691535472869873], "min": [-1.633213758468628, -17.954572677612305, -2.901580810546875], "type": "VEC3"}, {"bufferView": 3, "byteOffset": 174744, "componentType": 5126, "count": 152, "max": [1.0, 1.0, 1.0], "min": [-1.0, -1.0, -1.0], "type": "VEC3"}, {"bufferView": 4, "byteOffset": 115280, "componentType": 5126, "count": 152, "max": [0.9246113300323486, 1.0, 1.0, 1.0], "min": [-0.9999288320541382, -1.0, -1.0, -1.0], "type": "VEC4"}, {"bufferView": 2, "byteOffset": 115280, "componentType": 5126, "count": 152, "max": [0.9898398518562317, 0.9736925363540649], "min": [0.0027055260725319386, 0.0027011632919311523], "type": "VEC2"}, {"bufferView": 2, "byteOffset": 116496, "componentType": 5126, "count": 152, "max": [0.9898398518562317, 0.9736925363540649], "min": [0.0027055260725319386, 0.0027011632919311523], "type": "VEC2"}, {"bufferView": 1, "byteOffset": 127932, "componentType": 5125, "count": 324, "type": "SCALAR"}, {"bufferView": 3, "byteOffset": 176568, "componentType": 5126, "count": 100, "max": [0.8736751675605774, 0.8736779689788818, 2.3969838619232178], "min": [-0.8736751675605774, -0.873672366142273, -1.7764793634414673], "type": "VEC3"}, {"bufferView": 3, "byteOffset": 177768, "componentType": 5126, "count": 100, "max": [1.0, 1.0, 1.0], "min": [-1.0, -1.0, -1.0], "type": "VEC3"}, {"bufferView": 4, "byteOffset": 117712, "componentType": 5126, "count": 100, "max": [1.0, 1.0, 0.9999987483024597, 1.0], "min": [-1.0, -1.0, -0.9981738924980164, -1.0], "type": "VEC4"}, {"bufferView": 2, "byteOffset": 117712, "componentType": 5126, "count": 100, "max": [0.8403145670890808, 0.9972965717315674], "min": [0.4507744312286377, 0.47866952419281006], "type": "VEC2"}, {"bufferView": 2, "byteOffset": 118512, "componentType": 5126, "count": 100, "max": [0.8403145670890808, 0.9972965717315674], "min": [0.4507744312286377, 0.47866952419281006], "type": "VEC2"}, {"bufferView": 1, "byteOffset": 129228, "componentType": 5125, "count": 288, "type": "SCALAR"}, {"bufferView": 3, "byteOffset": 178968, "componentType": 5126, "count": 139, "max": [4.1176934242248535, 2.7224392890930176, 1.324660062789917], "min": [-1.3014535903930664, -1.493287444114685, -11.350116729736328], "type": "VEC3"}, {"bufferView": 3, "byteOffset": 180636, "componentType": 5126, "count": 139, "max": [1.0, 1.0, 1.0], "min": [-1.0, -1.0, -1.0], "type": "VEC3"}, {"bufferView": 4, "byteOffset": 119312, "componentType": 5126, "count": 139, "max": [1.0, 1.0, 1.0, 1.0], "min": [-1.0, -1.0, -1.0, -1.0], "type": "VEC4"}, {"bufferView": 2, "byteOffset": 119312, "componentType": 5126, "count": 139, "max": [0.9855020642280579, 0.9446142315864563], "min": [0.30758076906204224, 0.002701282501220703], "type": "VEC2"}, {"bufferView": 2, "byteOffset": 120424, "componentType": 5126, "count": 139, "max": [0.9855020642280579, 0.9446142315864563], "min": [0.30758076906204224, 0.002701282501220703], "type": "VEC2"}, {"bufferView": 1, "byteOffset": 130380, "componentType": 5125, "count": 360, "type": "SCALAR"}, {"bufferView": 5, "componentType": 5126, "count": 72, "max": [1.0, 0.9787421226501465, 0.9992250800132751, 0.0, 0.9578965902328491, 1.0, 0.999573290348053, 0.0, 0.9998152852058411, 0.9941645264625549, 1.0, 0.0, 97.3829574584961, 41.21754837036133, 163.3198699951172, 1.0], "min": [-1.0, -0.9787421226501465, -0.9992250800132751, 0.0, -0.9578965902328491, -0.24593812227249146, -0.9998682737350464, 0.0, -0.9998152852058411, -0.9998682737350464, -0.9934712648391724, 0.0, -97.3829574584961, -170.44480895996094, -113.81755828857422, 1.0], "type": "MAT4"}, {"bufferView": 0, "componentType": 5123, "count": 3526, "type": "VEC4"}, {"bufferView": 4, "byteOffset": 121536, "componentType": 5126, "count": 3526, "max": [1.0, 0.49838948249816895, 0.3182109594345093, 0.19524596631526947], "min": [0.28554850816726685, 0.0, 0.0, 0.0], "type": "VEC4"}, {"bufferView": 0, "byteOffset": 28208, "componentType": 5123, "count": 1855, "type": "VEC4"}, {"bufferView": 4, "byteOffset": 177952, "componentType": 5126, "count": 1855, "max": [1.0, 0.4959792494773865, 0.23201343417167664, 0.05859553813934326], "min": [0.38817426562309265, 0.0, 0.0, 0.0], "type": "VEC4"}, {"bufferView": 6, "componentType": 5126, "count": 19, "max": [17.799999237060547], "min": [0.0], "type": "SCALAR"}, {"bufferView": 7, "componentType": 5126, "count": 19, "max": [153.7550048828125, 242.1827392578125, 282.29376220703125], "min": [-153.75534057617188, 41.12992858886719, 8.493372917175293], "type": "VEC3"}, {"bufferView": 6, "byteOffset": 76, "componentType": 5126, "count": 516, "max": [22.766666412353516], "min": [0.0], "type": "SCALAR"}, {"bufferView": 7, "byteOffset": 228, "componentType": 5126, "count": 516, "max": [-5.810179710388184, 53.0595817565918, 45.314022064208984], "min": [-18.115938186645508, 16.887548446655273, -40.0], "type": "VEC3"}, {"bufferView": 6, "byteOffset": 2140, "componentType": 5126, "count": 668, "max": [22.766666412353516], "min": [0.0], "type": "SCALAR"}, {"bufferView": 8, "componentType": 5126, "count": 668, "max": [0.49520373344421387, 0.00337412697263062, 0.035759683698415756, 0.999998927116394], "min": [-0.2919468879699707, -0.307098388671875, -0.04125157743692398, 0.8682794570922852], "type": "VEC4"}, {"bufferView": 6, "byteOffset": 4812, "componentType": 5126, "count": 516, "max": [22.766666412353516], "min": [0.0], "type": "SCALAR"}, {"bufferView": 7, "byteOffset": 6420, "componentType": 5126, "count": 516, "max": [19.786867141723633, 54.18857192993164, 51.202537536621094], "min": [10.0, 15.226762771606445, -40.0], "type": "VEC3"}, {"bufferView": 6, "byteOffset": 6876, "componentType": 5126, "count": 516, "max": [22.766666412353516], "min": [0.0], "type": "SCALAR"}, {"bufferView": 8, "byteOffset": 10688, "componentType": 5126, "count": 516, "max": [0.6044700145721436, 0.07671903073787689, 0.008440542966127396, 0.9999939203262329], "min": [-0.28127574920654297, -0.013962154276669025, -0.009615443646907806, 0.7965055108070374], "type": "VEC4"}, {"bufferView": 6, "byteOffset": 8940, "componentType": 5126, "count": 23, "max": [16.03333282470703], "min": [0.0], "type": "SCALAR"}, {"bufferView": 8, "byteOffset": 18944, "componentType": 5126, "count": 23, "max": [0.0, 0.6427876353263855, 0.0, 1.0], "min": [0.0, -0.6427876353263855, 0.0, 0.7660444378852844], "type": "VEC4"}, {"bufferView": 6, "byteOffset": 9032, "componentType": 5126, "count": 507, "max": [22.766666412353516], "min": [0.0], "type": "SCALAR"}, {"bufferView": 7, "byteOffset": 12612, "componentType": 5126, "count": 507, "max": [12.652530670166016, 14.957533836364746, -69.58182525634766], "min": [-5.340488433837891, -20.47812271118164, -74.80115509033203], "type": "VEC3"}, {"bufferView": 6, "byteOffset": 11060, "componentType": 5126, "count": 521, "max": [22.766666412353516], "min": [0.0], "type": "SCALAR"}, {"bufferView": 8, "byteOffset": 19312, "componentType": 5126, "count": 521, "max": [0.40710940957069397, 0.05988138169050217, 0.5589022636413574, 0.9994669556617737], "min": [-0.1981627196073532, -0.12479639053344727, -0.5868455767631531, 0.805354654788971], "type": "VEC4"}, {"bufferView": 6, "byteOffset": 13144, "componentType": 5126, "count": 591, "max": [22.766666412353516], "min": [0.0], "type": "SCALAR"}, {"bufferView": 7, "byteOffset": 18696, "componentType": 5126, "count": 591, "max": [9.314641952514648, -17.81633949279785, 20.14273452758789], "min": [-18.039791107177734, -37.66284942626953, 12.213940620422363], "type": "VEC3"}, {"bufferView": 6, "byteOffset": 15508, "componentType": 5126, "count": 203, "max": [22.766666412353516], "min": [0.0], "type": "SCALAR"}, {"bufferView": 8, "byteOffset": 27648, "componentType": 5126, "count": 203, "max": [0.03988312929868698, 0.9855713844299316, 0.16926026344299316, 6.994999248750985e-17], "min": [-7.414185928179788e-17, 0.9847640991210938, 0.1691216677427292, -0.006849437486380339], "type": "VEC4"}, {"bufferView": 6, "byteOffset": 16320, "componentType": 5126, "count": 468, "max": [22.766666412353516], "min": [0.0], "type": "SCALAR"}, {"bufferView": 7, "byteOffset": 25788, "componentType": 5126, "count": 468, "max": [49.770084381103516, 27.512012481689453, 87.05857849121094], "min": [-0.4437652826309204, -84.07823944091797, -38.94888687133789], "type": "VEC3"}, {"bufferView": 6, "byteOffset": 18192, "componentType": 5126, "count": 682, "max": [22.766666412353516], "min": [0.0], "type": "SCALAR"}, {"bufferView": 8, "byteOffset": 30896, "componentType": 5126, "count": 682, "max": [0.9863478541374207, 0.9265713691711426, 0.47985967993736267, 0.9891137480735779], "min": [-0.5499226450920105, -0.859481930732727, -0.4398482143878937, -0.49839261174201965], "type": "VEC4"}, {"bufferView": 6, "byteOffset": 20920, "componentType": 5126, "count": 106, "max": [22.766666412353516], "min": [0.0], "type": "SCALAR"}, {"bufferView": 7, "byteOffset": 31404, "componentType": 5126, "count": 106, "max": [-7.460223197937012, 58.20652770996094, -5.445160865783691], "min": [-65.9066390991211, -17.486364364624023, -73.02332305908203], "type": "VEC3"}, {"bufferView": 6, "byteOffset": 21344, "componentType": 5126, "count": 579, "max": [22.766666412353516], "min": [0.0], "type": "SCALAR"}, {"bufferView": 8, "byteOffset": 41808, "componentType": 5126, "count": 579, "max": [-0.040065109729766846, -0.17458125948905945, -0.007328018080443144, 0.9837999939918518], "min": [-0.040065109729766846, -0.17458125948905945, -0.007328018080443144, 0.9837999939918518], "type": "VEC4"}, {"bufferView": 6, "byteOffset": 23660, "componentType": 5126, "count": 561, "max": [22.766666412353516], "min": [0.0], "type": "SCALAR"}, {"bufferView": 7, "byteOffset": 32676, "componentType": 5126, "count": 561, "max": [-14.39452838897705, 4.525174140930176, 5.035613536834717], "min": [-29.534982681274414, -17.915864944458008, -15.945594787597656], "type": "VEC3"}, {"bufferView": 6, "byteOffset": 25904, "componentType": 5126, "count": 576, "max": [22.766666412353516], "min": [0.0], "type": "SCALAR"}, {"bufferView": 8, "byteOffset": 51072, "componentType": 5126, "count": 576, "max": [0.6452900767326355, 0.644443690776825, 0.3235589861869812, 0.352312833070755], "min": [-0.6222347021102905, -0.6229664087295532, -0.3367484211921692, -0.3411673903465271], "type": "VEC4"}, {"bufferView": 6, "byteOffset": 28208, "componentType": 5126, "count": 135, "max": [22.766666412353516], "min": [0.0], "type": "SCALAR"}, {"bufferView": 7, "byteOffset": 39408, "componentType": 5126, "count": 135, "max": [3.6507043838500977, 28.982952117919922, 5.1878485679626465], "min": [-32.23146438598633, -28.63584327697754, -41.2363166809082], "type": "VEC3"}, {"bufferView": 6, "byteOffset": 28748, "componentType": 5126, "count": 682, "max": [22.766666412353516], "min": [0.0], "type": "SCALAR"}, {"bufferView": 8, "byteOffset": 60288, "componentType": 5126, "count": 682, "max": [0.5755861401557922, 0.8017224669456482, 0.6614384651184082, 0.9614661931991577], "min": [-0.5356273055076599, -0.5656032562255859, -0.6357766389846802, -0.48772355914115906], "type": "VEC4"}, {"bufferView": 6, "byteOffset": 31476, "componentType": 5126, "count": 65, "max": [22.766666412353516], "min": [0.0], "type": "SCALAR"}, {"bufferView": 7, "byteOffset": 41028, "componentType": 5126, "count": 65, "max": [36.3038330078125, 10.468186378479004, -16.541667938232422], "min": [1.1162502765655518, -49.41562271118164, -63.48797607421875], "type": "VEC3"}, {"bufferView": 6, "byteOffset": 31736, "componentType": 5126, "count": 581, "max": [22.766666412353516], "min": [0.0], "type": "SCALAR"}, {"bufferView": 8, "byteOffset": 71200, "componentType": 5126, "count": 581, "max": [-0.040065109729766846, 0.17458125948905945, 0.007328033447265625, 0.9837999939918518], "min": [-0.040065109729766846, 0.17458125948905945, 0.007328033447265625, 0.9837999939918518], "type": "VEC4"}, {"bufferView": 6, "byteOffset": 34060, "componentType": 5126, "count": 573, "max": [22.766666412353516], "min": [0.0], "type": "SCALAR"}, {"bufferView": 7, "byteOffset": 41808, "componentType": 5126, "count": 573, "max": [27.30271339416504, 10.694058418273926, 3.486189126968384], "min": [17.562599182128906, -2.496854066848755, -14.638429641723633], "type": "VEC3"}, {"bufferView": 6, "byteOffset": 36352, "componentType": 5126, "count": 574, "max": [22.766666412353516], "min": [0.0], "type": "SCALAR"}, {"bufferView": 8, "byteOffset": 80496, "componentType": 5126, "count": 574, "max": [0.679451048374176, 0.6096459627151489, -0.258677214384079, -0.33529385924339294], "min": [0.6452900767326355, 0.5892661213874817, -0.3154528737068176, -0.3524172008037567], "type": "VEC4"}, {"bufferView": 6, "byteOffset": 38648, "componentType": 5126, "count": 78, "max": [21.766666412353516], "min": [0.0], "type": "SCALAR"}, {"bufferView": 7, "byteOffset": 48684, "componentType": 5126, "count": 78, "max": [8.84508228302002, 3.140385627746582, -13.930868148803711], "min": [-1.1449174941446927e-15, -1.7100379467010498, -17.50432586669922], "type": "VEC3"}, {"bufferView": 6, "byteOffset": 38960, "componentType": 5126, "count": 551, "max": [21.766666412353516], "min": [0.0], "type": "SCALAR"}, {"bufferView": 8, "byteOffset": 89680, "componentType": 5126, "count": 551, "max": [-0.09935308247804642, 2.958594234624053e-16, 1.0801786336371485e-16, 0.9950522184371948], "min": [-0.09935308247804642, 1.0771538657476136e-16, -1.174092220523887e-16, 0.9950522184371948], "type": "VEC4"}, {"bufferView": 6, "byteOffset": 41164, "componentType": 5126, "count": 83, "max": [22.766666412353516], "min": [0.0], "type": "SCALAR"}, {"bufferView": 7, "byteOffset": 49620, "componentType": 5126, "count": 83, "max": [2.163121461868286, 5.8903350830078125, -15.359090805053711], "min": [-0.1306239813566208, -6.452628135681152, -19.2705078125], "type": "VEC3"}, {"bufferView": 6, "byteOffset": 41496, "componentType": 5126, "count": 582, "max": [22.766666412353516], "min": [0.0], "type": "SCALAR"}, {"bufferView": 8, "byteOffset": 98496, "componentType": 5126, "count": 582, "max": [0.1954989731311798, 0.2652789354324341, 0.4629599452018738, 0.998937726020813], "min": [-0.2110413908958435, -0.09720025956630707, -0.4839209318161011, 0.8651238083839417], "type": "VEC4"}, {"bufferView": 6, "byteOffset": 43824, "componentType": 5126, "count": 146, "max": [21.766666412353516], "min": [0.0], "type": "SCALAR"}, {"bufferView": 7, "byteOffset": 50616, "componentType": 5126, "count": 146, "max": [0.7000864744186401, 4.80072021484375, -22.224666595458984], "min": [-2.5757174171303632e-14, 3.552713678800501e-15, -23.339771270751953], "type": "VEC3"}, {"bufferView": 6, "byteOffset": 44408, "componentType": 5126, "count": 288, "max": [21.766666412353516], "min": [0.0], "type": "SCALAR"}, {"bufferView": 8, "byteOffset": 107808, "componentType": 5126, "count": 288, "max": [0.03383015841245651, 0.01582213304936886, 0.13600672781467438, 1.0], "min": [-4.163336342344337e-17, -1.1319070680748666e-16, -0.16967147588729858, 0.9847927689552307], "type": "VEC4"}, {"bufferView": 6, "byteOffset": 45560, "componentType": 5126, "count": 664, "max": [22.766666412353516], "min": [0.0], "type": "SCALAR"}, {"bufferView": 7, "byteOffset": 52368, "componentType": 5126, "count": 664, "max": [8.0, 104.60121154785156, 14.323159217834473], "min": [-8.0, 70.13660430908203, -19.97298240661621], "type": "VEC3"}, {"bufferView": 6, "byteOffset": 48216, "componentType": 5126, "count": 140, "max": [22.766666412353516], "min": [0.0], "type": "SCALAR"}, {"bufferView": 8, "byteOffset": 112416, "componentType": 5126, "count": 140, "max": [0.13968820869922638, 0.8549387454986572, 0.7426016330718994, 0.1295148879289627], "min": [-0.08658791333436966, -0.7003413438796997, -0.7037112712860107, -0.08657088875770569], "type": "VEC4"}, {"bufferView": 6, "byteOffset": 48776, "componentType": 5126, "count": 23, "max": [16.03333282470703], "min": [0.0], "type": "SCALAR"}, {"bufferView": 8, "byteOffset": 114656, "componentType": 5126, "count": 23, "max": [0.04850658029317856, 0.30070579051971436, 0.05578268691897392, 1.0], "min": [0.0, -0.30070579051971436, -0.05578268691897392, 0.9537169337272644], "type": "VEC4"}, {"bufferView": 6, "byteOffset": 48868, "componentType": 5126, "count": 646, "max": [21.766666412353516], "min": [0.0], "type": "SCALAR"}, {"bufferView": 7, "byteOffset": 60336, "componentType": 5126, "count": 646, "max": [7.105427357601002e-15, 1.4210854715202004e-14, -16.187129974365234], "min": [-1.4210854715202004e-14, -7.105427357601002e-15, -16.187129974365234], "type": "VEC3"}, {"bufferView": 6, "byteOffset": 51452, "componentType": 5126, "count": 654, "max": [21.766666412353516], "min": [0.0], "type": "SCALAR"}, {"bufferView": 8, "byteOffset": 115024, "componentType": 5126, "count": 654, "max": [-6.74456401839052e-09, 5.317334029683596e-17, 1.3877787807814457e-16, 1.0], "min": [-0.23529569804668427, -7.32920668600201e-17, -8.326672684688674e-17, 0.971923828125], "type": "VEC4"}, {"bufferView": 6, "byteOffset": 54068, "componentType": 5126, "count": 659, "max": [22.766666412353516], "min": [0.0], "type": "SCALAR"}, {"bufferView": 7, "byteOffset": 68088, "componentType": 5126, "count": 659, "max": [5.329070518200751e-15, -17.280351638793945, -9.867472648620605], "min": [-3.552713678800501e-15, -17.280351638793945, -9.867472648620605], "type": "VEC3"}, {"bufferView": 6, "byteOffset": 56704, "componentType": 5126, "count": 683, "max": [22.766666412353516], "min": [0.0], "type": "SCALAR"}, {"bufferView": 8, "byteOffset": 125488, "componentType": 5126, "count": 683, "max": [0.026694828644394875, 0.999984622001648, 0.26011255383491516, 0.22500702738761902], "min": [-0.022570643573999405, 0.9632719159126282, -0.00017929804744198918, -0.14357589185237885], "type": "VEC4"}, {"bufferView": 6, "byteOffset": 59436, "componentType": 5126, "count": 683, "max": [22.766666412353516], "min": [0.0], "type": "SCALAR"}, {"bufferView": 7, "byteOffset": 75996, "componentType": 5126, "count": 683, "max": [0.0009051787783391774, 0.0008455649949610233, -33.277801513671875], "min": [-1.4210854715202004e-14, -2.1316282072803006e-14, -40.88439178466797], "type": "VEC3"}, {"bufferView": 6, "byteOffset": 62168, "componentType": 5126, "count": 683, "max": [22.766666412353516], "min": [0.0], "type": "SCALAR"}, {"bufferView": 8, "byteOffset": 136416, "componentType": 5126, "count": 683, "max": [0.398557186126709, -0.07451537996530533, 0.4600268304347992, 0.9864671230316162], "min": [0.03348890319466591, -0.5557441115379333, 0.09530705958604813, 0.762343168258667], "type": "VEC4"}, {"bufferView": 6, "byteOffset": 64900, "componentType": 5126, "count": 683, "max": [22.766666412353516], "min": [0.0], "type": "SCALAR"}, {"bufferView": 7, "byteOffset": 84192, "componentType": 5126, "count": 683, "max": [5.5067062021407764e-14, -1.7763568394002505e-14, -27.55336570739746], "min": [-0.0008873207843862474, -0.0008640732849016786, -33.851531982421875], "type": "VEC3"}, {"bufferView": 6, "byteOffset": 67632, "componentType": 5126, "count": 683, "max": [22.766666412353516], "min": [0.0], "type": "SCALAR"}, {"bufferView": 8, "byteOffset": 147344, "componentType": 5126, "count": 683, "max": [-6.367533167406236e-09, 0.5015313625335693, 0.010382036678493023, 0.999946117401123], "min": [-0.47834786772727966, 6.676139197026032e-09, 0.007483951281756163, 0.7208284139633179], "type": "VEC4"}, {"bufferView": 6, "byteOffset": 70364, "componentType": 5126, "count": 683, "max": [22.766666412353516], "min": [0.0], "type": "SCALAR"}, {"bufferView": 8, "byteOffset": 158272, "componentType": 5126, "count": 683, "max": [0.9975388646125793, 0.8049038052558899, 0.2691758871078491, 0.8003464937210083], "min": [-0.787216305732727, -0.6771741509437561, -0.30576467514038086, -0.4995344877243042], "type": "VEC4"}, {"bufferView": 6, "byteOffset": 73096, "componentType": 5126, "count": 683, "max": [22.766666412353516], "min": [0.0], "type": "SCALAR"}, {"bufferView": 7, "byteOffset": 92388, "componentType": 5126, "count": 683, "max": [2.842170943040401e-14, 0.0007854438154026866, -32.27667236328125], "min": [-0.0008408189169131219, -3.197442310920451e-14, -40.02959442138672], "type": "VEC3"}, {"bufferView": 6, "byteOffset": 75828, "componentType": 5126, "count": 683, "max": [22.766666412353516], "min": [0.0], "type": "SCALAR"}, {"bufferView": 8, "byteOffset": 169200, "componentType": 5126, "count": 683, "max": [0.4328402876853943, 0.5662217736244202, -0.15534961223602295, 0.9613311886787415], "min": [0.05229585990309715, 0.06378019601106644, -0.5631299614906311, 0.6154899001121521], "type": "VEC4"}, {"bufferView": 6, "byteOffset": 78560, "componentType": 5126, "count": 683, "max": [22.766666412353516], "min": [0.0], "type": "SCALAR"}, {"bufferView": 7, "byteOffset": 100584, "componentType": 5126, "count": 683, "max": [0.0008242377662099898, 1.1013412404281553e-13, -26.724496841430664], "min": [-4.263256414560601e-14, -0.0008026430150493979, -33.14377212524414], "type": "VEC3"}, {"bufferView": 6, "byteOffset": 81292, "componentType": 5126, "count": 683, "max": [22.766666412353516], "min": [0.0], "type": "SCALAR"}, {"bufferView": 8, "byteOffset": 180128, "componentType": 5126, "count": 683, "max": [-6.298243260260961e-09, -6.60349153136508e-09, -0.006904109381139278, 0.999946117401123], "min": [-0.5154560208320618, -0.5404380559921265, -0.010382036678493023, 0.664969265460968], "type": "VEC4"}, {"bufferView": 6, "byteOffset": 84024, "componentType": 5126, "count": 683, "max": [22.766666412353516], "min": [0.0], "type": "SCALAR"}, {"bufferView": 8, "byteOffset": 191056, "componentType": 5126, "count": 683, "max": [0.9982727766036987, 0.7034826278686523, 0.3266403079032898, 0.6071311235427856], "min": [-0.7964004874229431, -0.32270002365112305, -0.3168254494667053, -0.4982854723930359], "type": "VEC4"}, {"bufferView": 6, "byteOffset": 86756, "componentType": 5126, "count": 672, "max": [22.766666412353516], "min": [0.0], "type": "SCALAR"}, {"bufferView": 7, "byteOffset": 108780, "componentType": 5126, "count": 672, "max": [1.1368683772161603e-13, 5.684341886080802e-14, -3.418858051300049], "min": [5.684341886080802e-14, 0.0, -3.418858051300049], "type": "VEC3"}, {"bufferView": 6, "byteOffset": 89444, "componentType": 5126, "count": 684, "max": [22.766666412353516], "min": [0.0], "type": "SCALAR"}, {"bufferView": 8, "byteOffset": 201984, "componentType": 5126, "count": 684, "max": [0.054115716367959976, 0.0523366704583168, -0.006685073021799326, 0.9997949600219727], "min": [-0.2224658876657486, -0.04016327112913132, -0.04652387276291847, 0.9746988415718079], "type": "VEC4"}, {"bufferView": 6, "byteOffset": 92180, "componentType": 5126, "count": 648, "max": [21.766666412353516], "min": [0.0], "type": "SCALAR"}, {"bufferView": 7, "byteOffset": 116844, "componentType": 5126, "count": 648, "max": [5.684341886080802e-14, -2.842170943040401e-14, -5.0468668937683105], "min": [0.0, -8.526512829121202e-14, -5.0468668937683105], "type": "VEC3"}, {"bufferView": 6, "byteOffset": 94772, "componentType": 5126, "count": 654, "max": [21.766666412353516], "min": [0.0], "type": "SCALAR"}, {"bufferView": 8, "byteOffset": 212928, "componentType": 5126, "count": 654, "max": [-0.009195009246468544, 0.22841192781925201, -0.09725829213857651, 0.968650758266449], "min": [-0.08583810925483704, 0.21999695897102356, -0.11503271013498306, 0.9648837447166443], "type": "VEC4"}, {"bufferView": 6, "byteOffset": 97388, "componentType": 5126, "count": 684, "max": [22.766666412353516], "min": [0.0], "type": "SCALAR"}, {"bufferView": 8, "byteOffset": 223392, "componentType": 5126, "count": 684, "max": [0.1621958315372467, 0.46646901965141296, 0.810250461101532, 0.5192605257034302], "min": [-0.11467188596725464, -0.46840375661849976, -0.748245894908905, -0.45888251066207886], "type": "VEC4"}, {"bufferView": 6, "byteOffset": 100124, "componentType": 5126, "count": 639, "max": [21.766666412353516], "min": [0.0], "type": "SCALAR"}, {"bufferView": 7, "byteOffset": 124620, "componentType": 5126, "count": 639, "max": [5.684341886080802e-14, 1.1368683772161603e-13, -3.184323310852051], "min": [-5.684341886080802e-14, 4.263256414560601e-14, -3.184323310852051], "type": "VEC3"}, {"bufferView": 6, "byteOffset": 102680, "componentType": 5126, "count": 654, "max": [21.766666412353516], "min": [0.0], "type": "SCALAR"}, {"bufferView": 8, "byteOffset": 234336, "componentType": 5126, "count": 654, "max": [-0.014858541078865528, 0.03811624273657799, -0.17965912818908691, 0.9823662042617798], "min": [-0.39730632305145264, -0.03615422919392586, -0.20201164484024048, 0.8985609412193298], "type": "VEC4"}, {"bufferView": 6, "byteOffset": 105296, "componentType": 5126, "count": 642, "max": [21.766666412353516], "min": [0.0], "type": "SCALAR"}, {"bufferView": 7, "byteOffset": 132288, "componentType": 5126, "count": 642, "max": [8.526512829121202e-14, -2.842170943040401e-14, -3.241945505142212], "min": [0.0, -8.526512829121202e-14, -3.241945505142212], "type": "VEC3"}, {"bufferView": 6, "byteOffset": 107864, "componentType": 5126, "count": 654, "max": [21.766666412353516], "min": [0.0], "type": "SCALAR"}, {"bufferView": 8, "byteOffset": 244800, "componentType": 5126, "count": 654, "max": [-0.09394588321447372, 0.02387387305498123, 0.026918752118945122, 0.9951697587966919], "min": [-0.5836123824119568, 0.012706289067864418, 0.01553590688854456, 0.8115326762199402], "type": "VEC4"}, {"bufferView": 6, "byteOffset": 110480, "componentType": 5126, "count": 684, "max": [22.766666412353516], "min": [0.0], "type": "SCALAR"}, {"bufferView": 8, "byteOffset": 255264, "componentType": 5126, "count": 684, "max": [-0.03187381103634834, 0.1339472234249115, 0.07580139487981796, 0.9914835095405579], "min": [-0.5079124569892883, 0.08606014400720596, -0.03871829807758331, 0.8521035313606262], "type": "VEC4"}, {"bufferView": 6, "byteOffset": 113216, "componentType": 5126, "count": 643, "max": [21.700000762939453], "min": [0.0], "type": "SCALAR"}, {"bufferView": 7, "byteOffset": 139992, "componentType": 5126, "count": 643, "max": [5.684341886080802e-14, 0.0, -3.4665491580963135], "min": [-5.684341886080802e-14, -5.684341886080802e-14, -3.4665491580963135], "type": "VEC3"}, {"bufferView": 6, "byteOffset": 115788, "componentType": 5126, "count": 652, "max": [21.700000762939453], "min": [0.0], "type": "SCALAR"}, {"bufferView": 8, "byteOffset": 266208, "componentType": 5126, "count": 652, "max": [-0.18923866748809814, -0.017059652134776115, -0.019804753363132477, 0.9814701676368713], "min": [-0.42548462748527527, -0.02264445647597313, -0.024778377264738083, 0.9044654965400696], "type": "VEC4"}, {"bufferView": 6, "byteOffset": 118396, "componentType": 5126, "count": 636, "max": [21.766666412353516], "min": [0.0], "type": "SCALAR"}, {"bufferView": 7, "byteOffset": 147708, "componentType": 5126, "count": 636, "max": [5.684341886080802e-14, 1.4210854715202004e-14, -3.8635544776916504], "min": [-5.684341886080802e-14, -2.842170943040401e-14, -3.8635544776916504], "type": "VEC3"}, {"bufferView": 6, "byteOffset": 120940, "componentType": 5126, "count": 654, "max": [21.766666412353516], "min": [0.0], "type": "SCALAR"}, {"bufferView": 8, "byteOffset": 276640, "componentType": 5126, "count": 654, "max": [-0.07320260256528854, -0.010304011404514313, -0.0008330931304953992, 0.9972521662712097], "min": [-0.4244123697280884, -0.01134937722235918, -0.0048300884664058685, 0.9053974747657776], "type": "VEC4"}, {"bufferView": 6, "byteOffset": 123556, "componentType": 5126, "count": 684, "max": [22.766666412353516], "min": [0.0], "type": "SCALAR"}, {"bufferView": 8, "byteOffset": 287104, "componentType": 5126, "count": 684, "max": [-0.10923628509044647, 0.10067903995513916, 0.08301404863595963, 0.9882040023803711], "min": [-0.5921012759208679, 0.06823774427175522, 0.037203118205070496, 0.7986837029457092], "type": "VEC4"}, {"bufferView": 6, "byteOffset": 126292, "componentType": 5126, "count": 636, "max": [21.766666412353516], "min": [0.0], "type": "SCALAR"}, {"bufferView": 7, "byteOffset": 155340, "componentType": 5126, "count": 636, "max": [5.684341886080802e-14, 5.684341886080802e-14, -3.679807662963867], "min": [1.4210854715202004e-14, -2.842170943040401e-14, -3.679807662963867], "type": "VEC3"}, {"bufferView": 6, "byteOffset": 128836, "componentType": 5126, "count": 654, "max": [21.766666412353516], "min": [0.0], "type": "SCALAR"}, {"bufferView": 8, "byteOffset": 298048, "componentType": 5126, "count": 654, "max": [0.008550508879125118, -0.023365812376141548, 0.002860418986529112, 0.9996903538703918], "min": [0.0076910220086574554, -0.4413956105709076, -0.0007938320050016046, 0.8972718119621277], "type": "VEC4"}, {"bufferView": 6, "byteOffset": 131452, "componentType": 5126, "count": 636, "max": [21.766666412353516], "min": [0.0], "type": "SCALAR"}, {"bufferView": 7, "byteOffset": 162972, "componentType": 5126, "count": 636, "max": [2.842170943040401e-14, 2.842170943040401e-14, -3.309962511062622], "min": [0.0, -5.684341886080802e-14, -3.309962511062622], "type": "VEC3"}, {"bufferView": 6, "byteOffset": 133996, "componentType": 5126, "count": 654, "max": [21.766666412353516], "min": [0.0], "type": "SCALAR"}, {"bufferView": 8, "byteOffset": 308512, "componentType": 5126, "count": 654, "max": [-0.019403180107474327, -0.09407974034547806, 0.0015799433458596468, 0.9953601360321045], "min": [-0.0618157722055912, -0.4471544623374939, -0.0253489688038826, 0.8919580578804016], "type": "VEC4"}, {"bufferView": 6, "byteOffset": 136612, "componentType": 5126, "count": 684, "max": [22.766666412353516], "min": [0.0], "type": "SCALAR"}, {"bufferView": 8, "byteOffset": 318976, "componentType": 5126, "count": 684, "max": [-0.1677018254995346, -0.06822309643030167, -0.49427470564842224, 0.7725607752799988], "min": [-0.4420296549797058, -0.3554738163948059, -0.6281548142433167, 0.6587417125701904], "type": "VEC4"}, {"bufferView": 6, "byteOffset": 139348, "componentType": 5126, "count": 636, "max": [21.766666412353516], "min": [0.0], "type": "SCALAR"}, {"bufferView": 7, "byteOffset": 170604, "componentType": 5126, "count": 636, "max": [1.4210854715202004e-14, 8.526512829121202e-14, -2.428715944290161], "min": [-5.684341886080802e-14, 2.842170943040401e-14, -2.428715944290161], "type": "VEC3"}, {"bufferView": 6, "byteOffset": 141892, "componentType": 5126, "count": 654, "max": [21.766666412353516], "min": [0.0], "type": "SCALAR"}, {"bufferView": 8, "byteOffset": 329920, "componentType": 5126, "count": 654, "max": [0.4663197100162506, 0.0026058086659759283, -0.0004637375823222101, 0.984527587890625], "min": [0.17520950734615326, 0.0023413568269461393, -0.001234236522577703, 0.8846123218536377], "type": "VEC4"}, {"bufferView": 6, "byteOffset": 144508, "componentType": 5126, "count": 642, "max": [21.766666412353516], "min": [0.0], "type": "SCALAR"}, {"bufferView": 7, "byteOffset": 178236, "componentType": 5126, "count": 642, "max": [1.4210854715202004e-14, 2.842170943040401e-14, -2.948665142059326], "min": [-5.684341886080802e-14, -1.4210854715202004e-14, -2.948665142059326], "type": "VEC3"}, {"bufferView": 6, "byteOffset": 147076, "componentType": 5126, "count": 654, "max": [21.766666412353516], "min": [0.0], "type": "SCALAR"}, {"bufferView": 8, "byteOffset": 340384, "componentType": 5126, "count": 654, "max": [0.6472674608230591, 0.024433588609099388, -0.004412033129483461, 0.9837815761566162], "min": [0.17764386534690857, 0.01892182044684887, -0.01607578992843628, 0.7618585228919983], "type": "VEC4"}, {"bufferView": 6, "byteOffset": 149692, "componentType": 5126, "count": 684, "max": [22.766666412353516], "min": [0.0], "type": "SCALAR"}, {"bufferView": 8, "byteOffset": 350848, "componentType": 5126, "count": 684, "max": [0.18783485889434814, 0.2649647295475006, 0.973652720451355, -0.05627940967679024], "min": [0.09579601138830185, 0.11640945076942444, 0.9441103935241699, -0.09221871197223663], "type": "VEC4"}, {"bufferView": 6, "byteOffset": 152428, "componentType": 5126, "count": 683, "max": [22.766666412353516], "min": [0.0], "type": "SCALAR"}, {"bufferView": 7, "byteOffset": 185940, "componentType": 5126, "count": 683, "max": [4.263256414560601e-14, 0.0002793820749502629, -19.764806747436523], "min": [-0.0012588633690029383, -5.684341886080802e-14, -41.55465316772461], "type": "VEC3"}, {"bufferView": 6, "byteOffset": 155160, "componentType": 5126, "count": 683, "max": [22.766666412353516], "min": [0.0], "type": "SCALAR"}, {"bufferView": 8, "byteOffset": 361792, "componentType": 5126, "count": 683, "max": [0.4504298269748688, 0.30377429723739624, 0.1838170886039734, 0.9963319897651672], "min": [-0.33895376324653625, -0.3266700804233551, -0.09851593524217606, 0.8732140064239502], "type": "VEC4"}, {"bufferView": 6, "byteOffset": 157892, "componentType": 5126, "count": 683, "max": [22.766666412353516], "min": [0.0], "type": "SCALAR"}, {"bufferView": 7, "byteOffset": 194136, "componentType": 5126, "count": 683, "max": [0.0012544419150799513, 1.3500311979441904e-13, -16.114913940429688], "min": [-8.526512829121202e-14, -0.0002974943199660629, -33.88091278076172], "type": "VEC3"}, {"bufferView": 6, "byteOffset": 160624, "componentType": 5126, "count": 683, "max": [22.766666412353516], "min": [0.0], "type": "SCALAR"}, {"bufferView": 8, "byteOffset": 372720, "componentType": 5126, "count": 683, "max": [-1.1304887026497568e-09, -6.8439578448931115e-09, 0.1727222204208374, 0.999873697757721], "min": [-0.28262555599212646, -0.7922282814979553, -0.10649817436933517, 0.5375718474388123], "type": "VEC4"}, {"bufferView": 6, "byteOffset": 163356, "componentType": 5126, "count": 683, "max": [22.766666412353516], "min": [0.0], "type": "SCALAR"}, {"bufferView": 7, "byteOffset": 202332, "componentType": 5126, "count": 683, "max": [1.4210854715202004e-14, 2.2737367544323206e-13, -12.291044235229492], "min": [-1.0658141036401503e-14, 1.4210854715202004e-13, -17.396228790283203], "type": "VEC3"}, {"bufferView": 6, "byteOffset": 166088, "componentType": 5126, "count": 683, "max": [22.766666412353516], "min": [0.0], "type": "SCALAR"}, {"bufferView": 8, "byteOffset": 383648, "componentType": 5126, "count": 683, "max": [0.9566887021064758, 0.4489766061306, 0.516438901424408, 0.9905366897583008], "min": [-0.4913823902606964, -0.6764026284217834, -0.29784199595451355, -0.2616015672683716], "type": "VEC4"}, {"bufferView": 6, "byteOffset": 168820, "componentType": 5126, "count": 683, "max": [22.766666412353516], "min": [0.0], "type": "SCALAR"}, {"bufferView": 8, "byteOffset": 394576, "componentType": 5126, "count": 683, "max": [0.6912344098091125, 0.638331413269043, 0.45801040530204773, 0.7051538228988647], "min": [-0.7390292882919312, -0.6171229481697083, -0.49368512630462646, -0.4995306730270386], "type": "VEC4"}, {"bufferView": 6, "byteOffset": 171552, "componentType": 5126, "count": 651, "max": [22.766666412353516], "min": [0.0], "type": "SCALAR"}, {"bufferView": 7, "byteOffset": 210528, "componentType": 5126, "count": 651, "max": [-5.684341886080802e-14, 5.684341886080802e-14, -3.418858051300049], "min": [-1.1368683772161603e-13, -2.842170943040401e-14, -3.418858051300049], "type": "VEC3"}, {"bufferView": 6, "byteOffset": 174156, "componentType": 5126, "count": 684, "max": [22.766666412353516], "min": [0.0], "type": "SCALAR"}, {"bufferView": 8, "byteOffset": 405504, "componentType": 5126, "count": 684, "max": [0.08793457597494125, 0.020520271733403206, 0.003569144755601883, 0.9997893571853638], "min": [-0.17389598488807678, 0.020207496359944344, -0.0018048217752948403, 0.9845501780509949], "type": "VEC4"}, {"bufferView": 6, "byteOffset": 176892, "componentType": 5126, "count": 627, "max": [21.766666412353516], "min": [0.0], "type": "SCALAR"}, {"bufferView": 7, "byteOffset": 218340, "componentType": 5126, "count": 627, "max": [2.842170943040401e-14, 1.4210854715202004e-14, -5.0468668937683105], "min": [-2.842170943040401e-14, -5.684341886080802e-14, -5.0468668937683105], "type": "VEC3"}, {"bufferView": 6, "byteOffset": 179400, "componentType": 5126, "count": 654, "max": [21.766666412353516], "min": [0.0], "type": "SCALAR"}, {"bufferView": 8, "byteOffset": 416448, "componentType": 5126, "count": 654, "max": [-0.0335538424551487, -0.06381271034479141, 0.0961156114935875, 0.9899981021881104], "min": [-0.3545077443122864, -0.13691696524620056, -0.005622300319373608, 0.9249575138092041], "type": "VEC4"}, {"bufferView": 6, "byteOffset": 182016, "componentType": 5126, "count": 684, "max": [22.766666412353516], "min": [0.0], "type": "SCALAR"}, {"bufferView": 8, "byteOffset": 426912, "componentType": 5126, "count": 684, "max": [0.12406262755393982, 0.5852867364883423, 0.750198483467102, 0.6373757719993591], "min": [-0.0010220591211691499, 0.3679669499397278, 0.6657387018203735, 0.45714491605758667], "type": "VEC4"}, {"bufferView": 6, "byteOffset": 184752, "componentType": 5126, "count": 665, "max": [22.766666412353516], "min": [0.0], "type": "SCALAR"}, {"bufferView": 7, "byteOffset": 225864, "componentType": 5126, "count": 665, "max": [5.684341886080802e-14, 2.842170943040401e-14, -3.184323310852051], "min": [-5.684341886080802e-14, -2.842170943040401e-14, -3.184323310852051], "type": "VEC3"}, {"bufferView": 6, "byteOffset": 187412, "componentType": 5126, "count": 684, "max": [22.766666412353516], "min": [0.0], "type": "SCALAR"}, {"bufferView": 8, "byteOffset": 437856, "componentType": 5126, "count": 684, "max": [-0.013388557359576225, 0.019967397674918175, -0.005906569771468639, 0.9996935129165649], "min": [-0.3450610935688019, 0.016866913065314293, -0.012210316024720669, 0.9383492469787598], "type": "VEC4"}, {"bufferView": 6, "byteOffset": 190148, "componentType": 5126, "count": 633, "max": [21.766666412353516], "min": [0.0], "type": "SCALAR"}, {"bufferView": 7, "byteOffset": 233844, "componentType": 5126, "count": 633, "max": [-2.842170943040401e-14, 5.684341886080802e-14, -3.241945505142212], "min": [-8.526512829121202e-14, 0.0, -3.241945505142212], "type": "VEC3"}, {"bufferView": 6, "byteOffset": 192680, "componentType": 5126, "count": 654, "max": [21.766666412353516], "min": [0.0], "type": "SCALAR"}, {"bufferView": 8, "byteOffset": 448800, "componentType": 5126, "count": 654, "max": [-0.15292178094387054, 0.14907126128673553, -0.05643188953399658, 0.9678949117660522], "min": [-0.5060655474662781, 0.06868718564510345, -0.17892926931381226, 0.8391086459159851], "type": "VEC4"}, {"bufferView": 6, "byteOffset": 195296, "componentType": 5126, "count": 684, "max": [22.766666412353516], "min": [0.0], "type": "SCALAR"}, {"bufferView": 8, "byteOffset": 459264, "componentType": 5126, "count": 684, "max": [-0.047426071017980576, 0.018798040226101875, 0.05266309529542923, 0.9935683608055115], "min": [-0.31029143929481506, -0.11965729296207428, -0.01921299658715725, 0.9491347074508667], "type": "VEC4"}, {"bufferView": 6, "byteOffset": 198032, "componentType": 5126, "count": 642, "max": [21.766666412353516], "min": [0.0], "type": "SCALAR"}, {"bufferView": 7, "byteOffset": 241440, "componentType": 5126, "count": 642, "max": [5.684341886080802e-14, 0.0, -3.4665491580963135], "min": [-2.842170943040401e-14, -2.842170943040401e-14, -3.4665491580963135], "type": "VEC3"}, {"bufferView": 6, "byteOffset": 200600, "componentType": 5126, "count": 654, "max": [21.766666412353516], "min": [0.0], "type": "SCALAR"}, {"bufferView": 8, "byteOffset": 470208, "componentType": 5126, "count": 654, "max": [-0.21486704051494598, -0.020127899944782257, -0.00495561258867383, 0.9763711094856262], "min": [-0.4876907765865326, -0.02251865528523922, -0.011247917078435421, 0.8727118968963623], "type": "VEC4"}, {"bufferView": 6, "byteOffset": 203216, "componentType": 5126, "count": 664, "max": [22.766666412353516], "min": [0.0], "type": "SCALAR"}, {"bufferView": 7, "byteOffset": 249144, "componentType": 5126, "count": 664, "max": [0.0, 1.7053025658242404e-13, -3.8635544776916504], "min": [-8.526512829121202e-14, 8.526512829121202e-14, -3.8635544776916504], "type": "VEC3"}, {"bufferView": 6, "byteOffset": 205872, "componentType": 5126, "count": 683, "max": [22.766666412353516], "min": [0.0], "type": "SCALAR"}, {"bufferView": 8, "byteOffset": 480672, "componentType": 5126, "count": 683, "max": [0.05280071869492531, 0.11388061940670013, -0.014370685443282127, 0.9983782172203064], "min": [-0.5025473237037659, 0.017760857939720154, -0.14260651171207428, 0.8511701822280884], "type": "VEC4"}, {"bufferView": 6, "byteOffset": 208604, "componentType": 5126, "count": 684, "max": [22.766666412353516], "min": [0.0], "type": "SCALAR"}, {"bufferView": 8, "byteOffset": 491600, "componentType": 5126, "count": 684, "max": [-0.33671852946281433, -0.04637312889099121, -0.009311786852777004, 0.9398152232170105], "min": [-0.574062705039978, -0.05566950887441635, -0.030583715066313744, 0.8167521357536316], "type": "VEC4"}, {"bufferView": 6, "byteOffset": 211340, "componentType": 5126, "count": 676, "max": [22.766666412353516], "min": [0.0], "type": "SCALAR"}, {"bufferView": 7, "byteOffset": 257112, "componentType": 5126, "count": 676, "max": [-1.0658141036401503e-13, -1.4210854715202004e-14, -3.309962511062622], "min": [-1.4921397450962104e-13, -8.526512829121202e-14, -3.309962511062622], "type": "VEC3"}, {"bufferView": 6, "byteOffset": 214044, "componentType": 5126, "count": 684, "max": [22.766666412353516], "min": [0.0], "type": "SCALAR"}, {"bufferView": 8, "byteOffset": 502544, "componentType": 5126, "count": 684, "max": [-0.019660433754324913, 0.49235618114471436, 0.0026276973076164722, 0.9874475598335266], "min": [-0.02016945369541645, 0.15665312111377716, -0.004540769848972559, 0.870159924030304], "type": "VEC4"}, {"bufferView": 6, "byteOffset": 216780, "componentType": 5126, "count": 684, "max": [22.766666412353516], "min": [0.0], "type": "SCALAR"}, {"bufferView": 8, "byteOffset": 513488, "componentType": 5126, "count": 684, "max": [-0.24602971971035004, 0.4707259237766266, 0.5603625178337097, 0.7874817252159119], "min": [-0.5008981227874756, 0.0730467364192009, 0.3516216576099396, 0.6355158686637878], "type": "VEC4"}, {"bufferView": 6, "byteOffset": 219516, "componentType": 5126, "count": 662, "max": [22.766666412353516], "min": [0.0], "type": "SCALAR"}, {"bufferView": 7, "byteOffset": 265224, "componentType": 5126, "count": 662, "max": [5.684341886080802e-14, 8.526512829121202e-14, -2.428715944290161], "min": [-1.4210854715202004e-14, 1.4210854715202004e-14, -2.428715944290161], "type": "VEC3"}, {"bufferView": 6, "byteOffset": 222164, "componentType": 5126, "count": 684, "max": [22.766666412353516], "min": [0.0], "type": "SCALAR"}, {"bufferView": 8, "byteOffset": 524432, "componentType": 5126, "count": 684, "max": [0.5153566598892212, -0.002268201671540737, 0.0013640274992212653, 0.9433279633522034], "min": [0.33185142278671265, -0.0024967663921415806, 0.0008783323573879898, 0.8569716811180115], "type": "VEC4"}, {"bufferView": 6, "byteOffset": 224900, "componentType": 5126, "count": 669, "max": [22.766666412353516], "min": [0.0], "type": "SCALAR"}, {"bufferView": 7, "byteOffset": 273168, "componentType": 5126, "count": 669, "max": [-1.4210854715202004e-13, -9.805489753489383e-13, -2.948665142059326], "min": [-2.2737367544323206e-13, -1.0373923942097463e-12, -2.948665142059326], "type": "VEC3"}, {"bufferView": 6, "byteOffset": 227576, "componentType": 5126, "count": 684, "max": [22.766666412353516], "min": [0.0], "type": "SCALAR"}, {"bufferView": 8, "byteOffset": 535376, "componentType": 5126, "count": 684, "max": [0.5647534132003784, 0.03652970492839813, 0.0826476663351059, 0.9848897457122803], "min": [0.15259937942028046, -0.008457199670374393, 0.03794889897108078, 0.8235769867897034], "type": "VEC4"}, {"bufferView": 6, "byteOffset": 230312, "componentType": 5126, "count": 654, "max": [21.766666412353516], "min": [0.0], "type": "SCALAR"}, {"bufferView": 8, "byteOffset": 546320, "componentType": 5126, "count": 654, "max": [-0.07193894684314728, 0.7410359382629395, 0.9350866675376892, 0.27997922897338867], "min": [-0.23014375567436218, 0.20505940914154053, 0.6060546040534973, 0.1749211996793747], "type": "VEC4"}, {"bufferView": 6, "byteOffset": 232928, "componentType": 5126, "count": 683, "max": [22.766666412353516], "min": [0.0], "type": "SCALAR"}, {"bufferView": 7, "byteOffset": 281196, "componentType": 5126, "count": 683, "max": [0.0015324726700782776, 0.0003401047142688185, -18.753625869750977], "min": [-2.842170943040401e-14, -7.105427357601002e-14, -26.47702407836914], "type": "VEC3"}, {"bufferView": 6, "byteOffset": 235660, "componentType": 5126, "count": 683, "max": [22.766666412353516], "min": [0.0], "type": "SCALAR"}, {"bufferView": 8, "byteOffset": 556784, "componentType": 5126, "count": 683, "max": [0.48164427280426025, 0.2205655425786972, 0.06609141081571579, 0.9961951971054077], "min": [-0.13283759355545044, -0.2404576689004898, -0.2804880142211914, 0.86580491065979], "type": "VEC4"}, {"bufferView": 6, "byteOffset": 238392, "componentType": 5126, "count": 683, "max": [22.766666412353516], "min": [0.0], "type": "SCALAR"}, {"bufferView": 7, "byteOffset": 289392, "componentType": 5126, "count": 683, "max": [8.526512829121202e-14, 1.8474111129762605e-13, -15.2904634475708], "min": [-0.0015268550487235188, -0.0003620978386607021, -21.587610244750977], "type": "VEC3"}, {"bufferView": 6, "byteOffset": 241124, "componentType": 5126, "count": 683, "max": [22.766666412353516], "min": [0.0], "type": "SCALAR"}, {"bufferView": 8, "byteOffset": 567712, "componentType": 5126, "count": 683, "max": [-1.424494189272707e-09, 0.8378012180328369, 0.07330314815044403, 0.997309684753418], "min": [-0.33299586176872253, 8.856168243198681e-09, -0.2145109921693802, 0.42809972167015076], "type": "VEC4"}, {"bufferView": 6, "byteOffset": 243856, "componentType": 5126, "count": 683, "max": [22.766666412353516], "min": [0.0], "type": "SCALAR"}, {"bufferView": 7, "byteOffset": 297588, "componentType": 5126, "count": 683, "max": [1.0658141036401503e-14, 1.1368683772161603e-13, -12.20331859588623], "min": [-1.7763568394002505e-14, 0.0, -16.19558334350586], "type": "VEC3"}, {"bufferView": 6, "byteOffset": 246588, "componentType": 5126, "count": 683, "max": [22.766666412353516], "min": [0.0], "type": "SCALAR"}, {"bufferView": 8, "byteOffset": 578640, "componentType": 5126, "count": 683, "max": [0.0006257741479203105, 0.6329823136329651, 0.19978530704975128, 0.9907003045082092], "min": [-0.4509377181529999, -0.21013393998146057, -0.6070035696029663, 0.6623427867889404], "type": "VEC4"}, {"bufferView": 6, "byteOffset": 249320, "componentType": 5126, "count": 683, "max": [22.766666412353516], "min": [0.0], "type": "SCALAR"}, {"bufferView": 8, "byteOffset": 589568, "componentType": 5126, "count": 683, "max": [0.6273337602615356, 0.6999525427818298, 0.7243540287017822, 0.5304492712020874], "min": [-0.5946311950683594, -0.6344132423400879, -0.6351408958435059, -0.49946895241737366], "type": "VEC4"}, {"bufferView": 6, "byteOffset": 252052, "componentType": 5126, "count": 563, "max": [22.766666412353516], "min": [0.0], "type": "SCALAR"}, {"bufferView": 7, "byteOffset": 305784, "componentType": 5126, "count": 563, "max": [-1.8738131046802664e-08, -4.765388011932373, 0.6522318720817566], "min": [-1.8738155915798416e-08, -4.765388011932373, 0.6522318720817566], "type": "VEC3"}, {"bufferView": 6, "byteOffset": 254304, "componentType": 5126, "count": 684, "max": [22.766666412353516], "min": [0.0], "type": "SCALAR"}, {"bufferView": 8, "byteOffset": 600496, "componentType": 5126, "count": 684, "max": [0.876063883304596, 0.186137855052948, 0.10437003523111343, 0.654758632183075], "min": [-0.8526848554611206, -0.08323667198419571, -0.08502527326345444, -0.4976089298725128], "type": "VEC4"}, {"bufferView": 6, "byteOffset": 257040, "componentType": 5126, "count": 675, "max": [22.766666412353516], "min": [0.0], "type": "SCALAR"}, {"bufferView": 7, "byteOffset": 312540, "componentType": 5126, "count": 675, "max": [2.842170943040401e-14, 2.842170943040401e-14, -10.80035400390625], "min": [0.0, -2.842170943040401e-14, -10.80035400390625], "type": "VEC3"}, {"bufferView": 6, "byteOffset": 259740, "componentType": 5126, "count": 644, "max": [22.766666412353516], "min": [0.0], "type": "SCALAR"}, {"bufferView": 8, "byteOffset": 611440, "componentType": 5126, "count": 644, "max": [0.5024645328521729, 0.2071351259946823, 0.4280775785446167, 0.9958276152610779], "min": [0.03169252723455429, -0.27333950996398926, -0.43820565938949585, 0.7963917851448059], "type": "VEC4"}, {"bufferView": 6, "byteOffset": 262316, "componentType": 5126, "count": 681, "max": [22.766666412353516], "min": [0.0], "type": "SCALAR"}, {"bufferView": 7, "byteOffset": 320640, "componentType": 5126, "count": 681, "max": [4.156675004196586e-13, 2.0605739337042905e-12, -17.396268844604492], "min": [3.9968028886505635e-13, 2.0179413695586845e-12, -17.396268844604492], "type": "VEC3"}, {"bufferView": 6, "byteOffset": 265040, "componentType": 5126, "count": 644, "max": [22.766666412353516], "min": [0.0], "type": "SCALAR"}, {"bufferView": 8, "byteOffset": 621744, "componentType": 5126, "count": 644, "max": [0.1156969964504242, 0.21522921323776245, 0.15169671177864075, 0.9991910457611084], "min": [-0.35953521728515625, -0.2673160433769226, -0.1014820784330368, 0.9277829527854919], "type": "VEC4"}, {"bufferView": 6, "byteOffset": 267616, "componentType": 5126, "count": 672, "max": [22.766666412353516], "min": [0.0], "type": "SCALAR"}, {"bufferView": 7, "byteOffset": 328812, "componentType": 5126, "count": 672, "max": [-3.6770586575585185e-13, 1.7195134205394424e-12, -17.52142906188965], "min": [-3.765876499528531e-13, 1.6910917111090384e-12, -17.52142906188965], "type": "VEC3"}, {"bufferView": 6, "byteOffset": 270304, "componentType": 5126, "count": 644, "max": [22.766666412353516], "min": [0.0], "type": "SCALAR"}, {"bufferView": 8, "byteOffset": 632048, "componentType": 5126, "count": 644, "max": [0.13702274858951569, 0.09437820315361023, 0.40695449709892273, 0.9997624158859253], "min": [-0.17633293569087982, -0.1306551843881607, -0.3774935007095337, 0.9101678133010864], "type": "VEC4"}, {"bufferView": 6, "byteOffset": 272880, "componentType": 5126, "count": 680, "max": [22.766666412353516], "min": [0.0], "type": "SCALAR"}, {"bufferView": 7, "byteOffset": 336876, "componentType": 5126, "count": 680, "max": [8.08242361927114e-14, -3.552713678800501e-13, -23.339771270751953], "min": [7.37188088351104e-14, -3.694822225952521e-13, -23.339771270751953], "type": "VEC3"}, {"bufferView": 6, "byteOffset": 275600, "componentType": 5126, "count": 643, "max": [22.766666412353516], "min": [0.0], "type": "SCALAR"}, {"bufferView": 8, "byteOffset": 642352, "componentType": 5126, "count": 643, "max": [0.09740465879440308, 0.003632115200161934, 0.11537857353687286, 0.9991859793663025], "min": [-0.23773932456970215, -0.04930702969431877, -0.14108403027057648, 0.9713196754455566], "type": "VEC4"}, {"bufferView": 6, "byteOffset": 278172, "componentType": 5126, "count": 664, "max": [22.766666412353516], "min": [0.0], "type": "SCALAR"}, {"bufferView": 7, "byteOffset": 345036, "componentType": 5126, "count": 664, "max": [19.36053466796875, 104.60121154785156, 23.3579044342041], "min": [-19.814714431762695, 70.13660430908203, -19.97298240661621], "type": "VEC3"}, {"bufferView": 6, "byteOffset": 280828, "componentType": 5126, "count": 640, "max": [22.766666412353516], "min": [0.0], "type": "SCALAR"}, {"bufferView": 8, "byteOffset": 652640, "componentType": 5126, "count": 640, "max": [0.25584903359413147, 0.8481358289718628, 0.7430053949356079, 0.2659905254840851], "min": [-0.16734780371189117, -0.6999168395996094, -0.7045045495033264, -0.15924577414989471], "type": "VEC4"}], "animations": [{"channels": [{"sampler": 0, "target": {"node": 81, "path": "translation"}}, {"sampler": 1, "target": {"node": 85, "path": "translation"}}, {"sampler": 2, "target": {"node": 85, "path": "rotation"}}, {"sampler": 3, "target": {"node": 87, "path": "translation"}}, {"sampler": 4, "target": {"node": 87, "path": "rotation"}}, {"sampler": 5, "target": {"node": 82, "path": "rotation"}}, {"sampler": 6, "target": {"node": 91, "path": "translation"}}, {"sampler": 7, "target": {"node": 91, "path": "rotation"}}, {"sampler": 8, "target": {"node": 92, "path": "translation"}}, {"sampler": 9, "target": {"node": 92, "path": "rotation"}}, {"sampler": 10, "target": {"node": 96, "path": "translation"}}, {"sampler": 11, "target": {"node": 96, "path": "rotation"}}, {"sampler": 12, "target": {"node": 97, "path": "translation"}}, {"sampler": 13, "target": {"node": 97, "path": "rotation"}}, {"sampler": 14, "target": {"node": 95, "path": "translation"}}, {"sampler": 15, "target": {"node": 95, "path": "rotation"}}, {"sampler": 16, "target": {"node": 99, "path": "translation"}}, {"sampler": 17, "target": {"node": 99, "path": "rotation"}}, {"sampler": 18, "target": {"node": 109, "path": "translation"}}, {"sampler": 19, "target": {"node": 109, "path": "rotation"}}, {"sampler": 20, "target": {"node": 98, "path": "translation"}}, {"sampler": 21, "target": {"node": 98, "path": "rotation"}}, {"sampler": 22, "target": {"node": 110, "path": "translation"}}, {"sampler": 23, "target": {"node": 110, "path": "rotation"}}, {"sampler": 24, "target": {"node": 94, "path": "translation"}}, {"sampler": 25, "target": {"node": 94, "path": "rotation"}}, {"sampler": 26, "target": {"node": 93, "path": "translation"}}, {"sampler": 27, "target": {"node": 93, "path": "rotation"}}, {"sampler": 28, "target": {"node": 90, "path": "translation"}}, {"sampler": 29, "target": {"node": 90, "path": "rotation"}}, {"sampler": 30, "target": {"node": 89, "path": "rotation"}}, {"sampler": 31, "target": {"node": 12, "path": "translation"}}, {"sampler": 32, "target": {"node": 12, "path": "rotation"}}, {"sampler": 33, "target": {"node": 11, "path": "translation"}}, {"sampler": 34, "target": {"node": 11, "path": "rotation"}}, {"sampler": 35, "target": {"node": 16, "path": "translation"}}, {"sampler": 36, "target": {"node": 16, "path": "rotation"}}, {"sampler": 37, "target": {"node": 15, "path": "translation"}}, {"sampler": 38, "target": {"node": 15, "path": "rotation"}}, {"sampler": 39, "target": {"node": 14, "path": "rotation"}}, {"sampler": 40, "target": {"node": 21, "path": "translation"}}, {"sampler": 41, "target": {"node": 21, "path": "rotation"}}, {"sampler": 42, "target": {"node": 20, "path": "translation"}}, {"sampler": 43, "target": {"node": 20, "path": "rotation"}}, {"sampler": 44, "target": {"node": 19, "path": "rotation"}}, {"sampler": 45, "target": {"node": 32, "path": "translation"}}, {"sampler": 46, "target": {"node": 32, "path": "rotation"}}, {"sampler": 47, "target": {"node": 31, "path": "translation"}}, {"sampler": 48, "target": {"node": 31, "path": "rotation"}}, {"sampler": 49, "target": {"node": 30, "path": "rotation"}}, {"sampler": 50, "target": {"node": 36, "path": "translation"}}, {"sampler": 51, "target": {"node": 36, "path": "rotation"}}, {"sampler": 52, "target": {"node": 35, "path": "translation"}}, {"sampler": 53, "target": {"node": 35, "path": "rotation"}}, {"sampler": 54, "target": {"node": 34, "path": "rotation"}}, {"sampler": 55, "target": {"node": 40, "path": "translation"}}, {"sampler": 56, "target": {"node": 40, "path": "rotation"}}, {"sampler": 57, "target": {"node": 39, "path": "translation"}}, {"sampler": 58, "target": {"node": 39, "path": "rotation"}}, {"sampler": 59, "target": {"node": 38, "path": "rotation"}}, {"sampler": 60, "target": {"node": 44, "path": "translation"}}, {"sampler": 61, "target": {"node": 44, "path": "rotation"}}, {"sampler": 62, "target": {"node": 43, "path": "translation"}}, {"sampler": 63, "target": {"node": 43, "path": "rotation"}}, {"sampler": 64, "target": {"node": 42, "path": "rotation"}}, {"sampler": 65, "target": {"node": 48, "path": "translation"}}, {"sampler": 66, "target": {"node": 48, "path": "rotation"}}, {"sampler": 67, "target": {"node": 47, "path": "translation"}}, {"sampler": 68, "target": {"node": 47, "path": "rotation"}}, {"sampler": 69, "target": {"node": 46, "path": "rotation"}}, {"sampler": 70, "target": {"node": 29, "path": "translation"}}, {"sampler": 71, "target": {"node": 29, "path": "rotation"}}, {"sampler": 72, "target": {"node": 28, "path": "translation"}}, {"sampler": 73, "target": {"node": 28, "path": "rotation"}}, {"sampler": 74, "target": {"node": 27, "path": "translation"}}, {"sampler": 75, "target": {"node": 27, "path": "rotation"}}, {"sampler": 76, "target": {"node": 26, "path": "rotation"}}, {"sampler": 77, "target": {"node": 56, "path": "translation"}}, {"sampler": 78, "target": {"node": 56, "path": "rotation"}}, {"sampler": 79, "target": {"node": 55, "path": "translation"}}, {"sampler": 80, "target": {"node": 55, "path": "rotation"}}, {"sampler": 81, "target": {"node": 54, "path": "rotation"}}, {"sampler": 82, "target": {"node": 60, "path": "translation"}}, {"sampler": 83, "target": {"node": 60, "path": "rotation"}}, {"sampler": 84, "target": {"node": 59, "path": "translation"}}, {"sampler": 85, "target": {"node": 59, "path": "rotation"}}, {"sampler": 86, "target": {"node": 58, "path": "rotation"}}, {"sampler": 87, "target": {"node": 64, "path": "translation"}}, {"sampler": 88, "target": {"node": 64, "path": "rotation"}}, {"sampler": 89, "target": {"node": 63, "path": "translation"}}, {"sampler": 90, "target": {"node": 63, "path": "rotation"}}, {"sampler": 91, "target": {"node": 62, "path": "rotation"}}, {"sampler": 92, "target": {"node": 67, "path": "translation"}}, {"sampler": 93, "target": {"node": 67, "path": "rotation"}}, {"sampler": 94, "target": {"node": 66, "path": "rotation"}}, {"sampler": 95, "target": {"node": 72, "path": "translation"}}, {"sampler": 96, "target": {"node": 72, "path": "rotation"}}, {"sampler": 97, "target": {"node": 71, "path": "translation"}}, {"sampler": 98, "target": {"node": 71, "path": "rotation"}}, {"sampler": 99, "target": {"node": 70, "path": "rotation"}}, {"sampler": 100, "target": {"node": 53, "path": "translation"}}, {"sampler": 101, "target": {"node": 53, "path": "rotation"}}, {"sampler": 102, "target": {"node": 52, "path": "translation"}}, {"sampler": 103, "target": {"node": 52, "path": "rotation"}}, {"sampler": 104, "target": {"node": 51, "path": "translation"}}, {"sampler": 105, "target": {"node": 51, "path": "rotation"}}, {"sampler": 106, "target": {"node": 50, "path": "rotation"}}, {"sampler": 107, "target": {"node": 78, "path": "translation"}}, {"sampler": 108, "target": {"node": 78, "path": "rotation"}}, {"sampler": 109, "target": {"node": 75, "path": "translation"}}, {"sampler": 110, "target": {"node": 75, "path": "rotation"}}, {"sampler": 111, "target": {"node": 74, "path": "translation"}}, {"sampler": 112, "target": {"node": 74, "path": "rotation"}}, {"sampler": 113, "target": {"node": 25, "path": "translation"}}, {"sampler": 114, "target": {"node": 25, "path": "rotation"}}, {"sampler": 115, "target": {"node": 24, "path": "translation"}}, {"sampler": 116, "target": {"node": 24, "path": "rotation"}}, {"sampler": 117, "target": {"node": 10, "path": "translation"}}, {"sampler": 118, "target": {"node": 10, "path": "rotation"}}], "name": "allanims", "samplers": [{"input": 41, "interpolation": "LINEAR", "output": 42}, {"input": 43, "interpolation": "LINEAR", "output": 44}, {"input": 45, "interpolation": "LINEAR", "output": 46}, {"input": 47, "interpolation": "LINEAR", "output": 48}, {"input": 49, "interpolation": "LINEAR", "output": 50}, {"input": 51, "interpolation": "LINEAR", "output": 52}, {"input": 53, "interpolation": "LINEAR", "output": 54}, {"input": 55, "interpolation": "LINEAR", "output": 56}, {"input": 57, "interpolation": "LINEAR", "output": 58}, {"input": 59, "interpolation": "LINEAR", "output": 60}, {"input": 61, "interpolation": "LINEAR", "output": 62}, {"input": 63, "interpolation": "LINEAR", "output": 64}, {"input": 65, "interpolation": "LINEAR", "output": 66}, {"input": 67, "interpolation": "LINEAR", "output": 68}, {"input": 69, "interpolation": "LINEAR", "output": 70}, {"input": 71, "interpolation": "LINEAR", "output": 72}, {"input": 73, "interpolation": "LINEAR", "output": 74}, {"input": 75, "interpolation": "LINEAR", "output": 76}, {"input": 77, "interpolation": "LINEAR", "output": 78}, {"input": 79, "interpolation": "LINEAR", "output": 80}, {"input": 81, "interpolation": "LINEAR", "output": 82}, {"input": 83, "interpolation": "LINEAR", "output": 84}, {"input": 85, "interpolation": "LINEAR", "output": 86}, {"input": 87, "interpolation": "LINEAR", "output": 88}, {"input": 89, "interpolation": "LINEAR", "output": 90}, {"input": 91, "interpolation": "LINEAR", "output": 92}, {"input": 93, "interpolation": "LINEAR", "output": 94}, {"input": 95, "interpolation": "LINEAR", "output": 96}, {"input": 97, "interpolation": "LINEAR", "output": 98}, {"input": 99, "interpolation": "LINEAR", "output": 100}, {"input": 101, "interpolation": "LINEAR", "output": 102}, {"input": 103, "interpolation": "LINEAR", "output": 104}, {"input": 105, "interpolation": "LINEAR", "output": 106}, {"input": 107, "interpolation": "LINEAR", "output": 108}, {"input": 109, "interpolation": "LINEAR", "output": 110}, {"input": 111, "interpolation": "LINEAR", "output": 112}, {"input": 113, "interpolation": "LINEAR", "output": 114}, {"input": 115, "interpolation": "LINEAR", "output": 116}, {"input": 117, "interpolation": "LINEAR", "output": 118}, {"input": 119, "interpolation": "LINEAR", "output": 120}, {"input": 121, "interpolation": "LINEAR", "output": 122}, {"input": 123, "interpolation": "LINEAR", "output": 124}, {"input": 125, "interpolation": "LINEAR", "output": 126}, {"input": 127, "interpolation": "LINEAR", "output": 128}, {"input": 129, "interpolation": "LINEAR", "output": 130}, {"input": 131, "interpolation": "LINEAR", "output": 132}, {"input": 133, "interpolation": "LINEAR", "output": 134}, {"input": 135, "interpolation": "LINEAR", "output": 136}, {"input": 137, "interpolation": "LINEAR", "output": 138}, {"input": 139, "interpolation": "LINEAR", "output": 140}, {"input": 141, "interpolation": "LINEAR", "output": 142}, {"input": 143, "interpolation": "LINEAR", "output": 144}, {"input": 145, "interpolation": "LINEAR", "output": 146}, {"input": 147, "interpolation": "LINEAR", "output": 148}, {"input": 149, "interpolation": "LINEAR", "output": 150}, {"input": 151, "interpolation": "LINEAR", "output": 152}, {"input": 153, "interpolation": "LINEAR", "output": 154}, {"input": 155, "interpolation": "LINEAR", "output": 156}, {"input": 157, "interpolation": "LINEAR", "output": 158}, {"input": 159, "interpolation": "LINEAR", "output": 160}, {"input": 161, "interpolation": "LINEAR", "output": 162}, {"input": 163, "interpolation": "LINEAR", "output": 164}, {"input": 165, "interpolation": "LINEAR", "output": 166}, {"input": 167, "interpolation": "LINEAR", "output": 168}, {"input": 169, "interpolation": "LINEAR", "output": 170}, {"input": 171, "interpolation": "LINEAR", "output": 172}, {"input": 173, "interpolation": "LINEAR", "output": 174}, {"input": 175, "interpolation": "LINEAR", "output": 176}, {"input": 177, "interpolation": "LINEAR", "output": 178}, {"input": 179, "interpolation": "LINEAR", "output": 180}, {"input": 181, "interpolation": "LINEAR", "output": 182}, {"input": 183, "interpolation": "LINEAR", "output": 184}, {"input": 185, "interpolation": "LINEAR", "output": 186}, {"input": 187, "interpolation": "LINEAR", "output": 188}, {"input": 189, "interpolation": "LINEAR", "output": 190}, {"input": 191, "interpolation": "LINEAR", "output": 192}, {"input": 193, "interpolation": "LINEAR", "output": 194}, {"input": 195, "interpolation": "LINEAR", "output": 196}, {"input": 197, "interpolation": "LINEAR", "output": 198}, {"input": 199, "interpolation": "LINEAR", "output": 200}, {"input": 201, "interpolation": "LINEAR", "output": 202}, {"input": 203, "interpolation": "LINEAR", "output": 204}, {"input": 205, "interpolation": "LINEAR", "output": 206}, {"input": 207, "interpolation": "LINEAR", "output": 208}, {"input": 209, "interpolation": "LINEAR", "output": 210}, {"input": 211, "interpolation": "LINEAR", "output": 212}, {"input": 213, "interpolation": "LINEAR", "output": 214}, {"input": 215, "interpolation": "LINEAR", "output": 216}, {"input": 217, "interpolation": "LINEAR", "output": 218}, {"input": 219, "interpolation": "LINEAR", "output": 220}, {"input": 221, "interpolation": "LINEAR", "output": 222}, {"input": 223, "interpolation": "LINEAR", "output": 224}, {"input": 225, "interpolation": "LINEAR", "output": 226}, {"input": 227, "interpolation": "LINEAR", "output": 228}, {"input": 229, "interpolation": "LINEAR", "output": 230}, {"input": 231, "interpolation": "LINEAR", "output": 232}, {"input": 233, "interpolation": "LINEAR", "output": 234}, {"input": 235, "interpolation": "LINEAR", "output": 236}, {"input": 237, "interpolation": "LINEAR", "output": 238}, {"input": 239, "interpolation": "LINEAR", "output": 240}, {"input": 241, "interpolation": "LINEAR", "output": 242}, {"input": 243, "interpolation": "LINEAR", "output": 244}, {"input": 245, "interpolation": "LINEAR", "output": 246}, {"input": 247, "interpolation": "LINEAR", "output": 248}, {"input": 249, "interpolation": "LINEAR", "output": 250}, {"input": 251, "interpolation": "LINEAR", "output": 252}, {"input": 253, "interpolation": "LINEAR", "output": 254}, {"input": 255, "interpolation": "LINEAR", "output": 256}, {"input": 257, "interpolation": "LINEAR", "output": 258}, {"input": 259, "interpolation": "LINEAR", "output": 260}, {"input": 261, "interpolation": "LINEAR", "output": 262}, {"input": 263, "interpolation": "LINEAR", "output": 264}, {"input": 265, "interpolation": "LINEAR", "output": 266}, {"input": 267, "interpolation": "LINEAR", "output": 268}, {"input": 269, "interpolation": "LINEAR", "output": 270}, {"input": 271, "interpolation": "LINEAR", "output": 272}, {"input": 273, "interpolation": "LINEAR", "output": 274}, {"input": 275, "interpolation": "LINEAR", "output": 276}, {"input": 277, "interpolation": "LINEAR", "output": 278}]}], "asset": {"extras": {"author": "DJMaesen (https://sketchfab.com/bumstrum)", "license": "CC-BY-4.0 (http://creativecommons.org/licenses/by/4.0/)", "source": "https://sketchfab.com/3d-models/cultist-60f6f26ac2054b09a0b4757fbc771d18", "title": "cultist"}, "generator": "Sketchfab-12.88.0", "version": "2.0"}, "bufferViews": [{"buffer": 0, "byteLength": 43048, "byteStride": 8, "name": "shortBufferViews", "target": 34962}, {"buffer": 0, "byteLength": 131820, "byteOffset": 43048, "name": "floatBufferViews", "target": 34963}, {"buffer": 0, "byteLength": 121536, "byteOffset": 174868, "byteStride": 8, "name": "floatBufferViews", "target": 34962}, {"buffer": 0, "byteLength": 182304, "byteOffset": 296404, "byteStride": 12, "name": "floatBufferViews", "target": 34962}, {"buffer": 0, "byteLength": 207632, "byteOffset": 478708, "byteStride": 16, "name": "floatBufferViews", "target": 34962}, {"buffer": 0, "byteLength": 4608, "byteOffset": 686340, "name": "floatBufferViews"}, {"buffer": 0, "byteLength": 283388, "byteOffset": 690948, "name": "floatBufferViews"}, {"buffer": 0, "byteLength": 353004, "byteOffset": 974336, "byteStride": 12, "name": "floatBufferViews"}, {"buffer": 0, "byteLength": 662880, "byteOffset": 1327340, "byteStride": 16, "name": "floatBufferViews"}], "buffers": [{"byteLength": 1990220, "uri": "scene.bin"}], "images": [{"uri": "textures/cultistbody_baseColor.png"}, {"uri": "textures/cultistbody_metallicRoughness.png"}, {"uri": "textures/cultistbody_normal.png"}, {"uri": "textures/cultisthead_baseColor.png"}, {"uri": "textures/cultisthead_metallicRoughness.png"}, {"uri": "textures/cultisthead_normal.png"}, {"uri": "textures/smgLow_baseColor.png"}, {"uri": "textures/smgLow_metallicRoughness.png"}, {"uri": "textures/smgLow_normal.png"}], "materials": [{"name": "cultistbody", "occlusionTexture": {"index": 1}, "pbrMetallicRoughness": {"baseColorTexture": {"index": 0}, "metallicRoughnessTexture": {"index": 1}}}, {"name": "cultisthead", "occlusionTexture": {"index": 4}, "pbrMetallicRoughness": {"baseColorTexture": {"index": 3}, "metallicRoughnessTexture": {"index": 4}}}, {"name": "smgLow", "occlusionTexture": {"index": 7}, "pbrMetallicRoughness": {"baseColorTexture": {"index": 6}, "metallicRoughnessTexture": {"index": 7}}}], "meshes": [{"name": "body_cultistbody_0", "primitives": [{"attributes": {"JOINTS_0": 37, "NORMAL": 1, "POSITION": 0, "TANGENT": 2, "TEXCOORD_0": 3, "TEXCOORD_1": 4, "TEXCOORD_2": 3, "WEIGHTS_0": 38}, "indices": 5, "material": 0, "mode": 4}]}, {"name": "head_2_cultisthead_0", "primitives": [{"attributes": {"JOINTS_0": 39, "NORMAL": 7, "POSITION": 6, "TANGENT": 8, "TEXCOORD_0": 9, "TEXCOORD_1": 10, "TEXCOORD_2": 9, "WEIGHTS_0": 40}, "indices": 11, "material": 1, "mode": 4}]}, {"name": "base_smgLow_0", "primitives": [{"attributes": {"NORMAL": 13, "POSITION": 12, "TANGENT": 14, "TEXCOORD_0": 15, "TEXCOORD_1": 16}, "indices": 17, "material": 2, "mode": 4}]}, {"name": "mag_smgLow_0", "primitives": [{"attributes": {"NORMAL": 19, "POSITION": 18, "TANGENT": 20, "TEXCOORD_0": 21, "TEXCOORD_1": 22}, "indices": 23, "material": 2, "mode": 4}]}, {"name": "bullet_smgLow_0", "primitives": [{"attributes": {"NORMAL": 25, "POSITION": 24, "TANGENT": 26, "TEXCOORD_0": 27, "TEXCOORD_1": 28}, "indices": 29, "material": 2, "mode": 4}]}, {"name": "bolt_smgLow_0", "primitives": [{"attributes": {"NORMAL": 31, "POSITION": 30, "TANGENT": 32, "TEXCOORD_0": 33, "TEXCOORD_1": 34}, "indices": 35, "material": 2, "mode": 4}]}], "nodes": [{"children": [1], "matrix": [0.0133769316598773, 0.0, 0.0, 0.0, 0.0, 2.9702755055265984e-18, -0.0133769316598773, 0.0, 0.0, 0.0133769316598773, 2.9702755055265984e-18, 0.0, 0.0, 0.0, 0.0, 1.0], "name": "Sketchfab_model"}, {"children": [2], "matrix": [1.0, 0.0, 0.0, 0.0, 0.0, 0.0, 1.0, 0.0, 0.0, -1.0, 0.0, 0.0, 0.0, 0.0, 0.0, 1.0], "name": "1ae9dd836ef14be6a520a41e33d4103b.fbx"}, {"children": [3], "name": "Object_2"}, {"children": [4], "name": "RootNode"}, {"children": [5, 7, 9, 6, 8, 81, 82, 89, 111, 112], "name": "Object_4"}, {"children": [10], "name": "_rootJoint"}, {"matrix": [1.0, 2.465190328815662e-32, -4.1600086798764294e-32, 0.0, -2.465190328815662e-32, 1.0, 1.3877787807814457e-17, 0.0, 4.1600086798764294e-32, -1.3877787807814457e-17, 1.0, 0.0, -2.1693674893577825e-30, 104.15002776268469, 4.887556735993787, 1.0], "name": "Object_6"}, {"mesh": 0, "name": "Object_7", "skin": 0}, {"matrix": [1.0, 0.0, -3.2311742677852644e-27, 0.0, -1.1210387714598537e-44, 1.0, -3.469446951953614e-18, 0.0, 3.2311742677852644e-27, 3.469446951953614e-18, 1.0, 0.0, 8.271806125530277e-24, 160.8173138291917, 8.952719321300886, 1.0], "name": "Object_8"}, {"mesh": 1, "name": "Object_9", "skin": 0}, {"children": [11, 14, 19, 24], "name": "hip_01", "rotation": [-8.653583065448001e-17, 0.7328875064849854, -0.6803498268127441, -3.2170065250486092e-18], "translation": [-9.535483991627127e-16, 95.75232696533203, -9.244424819946289]}, {"children": [12], "name": "ropes1_02", "rotation": [0.0002172224485548213, 0.9996867179870605, 0.009354040957987309, 0.023215020075440407], "translation": [1.1700137039432983e-15, -17.280351638793945, -9.867472648620605]}, {"children": [13], "name": "ropes2_03", "rotation": [-7.721276951144773e-09, 1.2129511804681581e-17, -3.903127820947816e-18, 1.0], "translation": [0.0, 1.7763568394002505e-15, -16.187129974365234]}, {"name": "ropes3_04", "rotation": [-4.371503159461554e-16, 2.710505431213761e-20, 5.637851296924623e-18, 1.0], "translation": [-8.881784197001252e-16, -1.5987211554602254e-14, -11.77207088470459]}, {"children": [15], "name": "L_leg_05", "rotation": [0.9201974272727966, -0.3874806761741638, -0.027481824159622192, -0.048375021666288376], "translation": [-10.932367324829102, -2.3800148963928223, 6.593834400177002]}, {"children": [16], "name": "L_knee_06", "rotation": [-0.046210985630750656, 0.048450637608766556, 0.010358739644289017, 0.9977022409439087], "translation": [-1.4873987311148085e-05, -1.4484294297290035e-05, -32.57939529418945]}, {"children": [17], "name": "L_ankle_07", "rotation": [0.19904857873916626, -0.28305596113204956, 0.27877122163772583, 0.8958491086959839], "translation": [1.5171393897617236e-05, 1.4172228475217707e-05, -39.34796142578125]}, {"children": [18], "name": "L_foot_08", "rotation": [0.07388735562562943, -0.3675107955932617, 0.029304903000593185, 0.926616370677948], "translation": [-1.7763568394002505e-15, 1.5987211554602254e-14, -12.82464599609375]}, {"name": "L_toes_09", "rotation": [-2.7755575615628914e-17, 1.3739009929736312e-15, 1.9949319973733282e-17, 1.0], "translation": [-3.3306690738754696e-14, 7.105427357601002e-15, -13.242215156555176]}, {"children": [20], "name": "R_leg_010", "rotation": [0.9197436571121216, 0.38790908455848694, 0.02917947620153427, -0.052409157156944275], "translation": [10.932367324829102, -2.3800148963928223, 6.593834400177002]}, {"children": [21], "name": "R_knee_011", "rotation": [-0.05137300491333008, -0.05386283993721008, -0.010353236459195614, 0.9971722364425659], "translation": [3.333788117743097e-05, -3.246444248361513e-05, -32.56877136230469]}, {"children": [22], "name": "R_ankle_012", "rotation": [0.1997881382703781, 0.286067932844162, -0.2762565314769745, 0.8955066800117493], "translation": [-3.400418790988624e-05, 3.1764720915816724e-05, -39.33512878417969]}, {"children": [23], "name": "R_foot_013", "rotation": [0.07388735562562943, 0.3675107955932617, -0.029304903000593185, 0.926616370677948], "translation": [3.1530333899354446e-14, -1.7763568394002505e-15, -12.82464599609375]}, {"name": "R_toes_014", "rotation": [-1.3877787807814457e-17, -1.9845236565174673e-15, 1.734723475976807e-17, 1.0], "translation": [4.574118861455645e-14, -5.329070518200751e-15, -13.242215156555176]}, {"children": [25], "name": "spine_015", "rotation": [0.09740465879440308, 1.2241052808945171e-16, -3.752856400607145e-18, 0.9952448606491089], "translation": [7.708564960396541e-14, -3.623767952376511e-13, -23.339771270751953]}, {"children": [26, 50, 74], "name": "chest_016", "rotation": [-0.06380676478147507, -2.8556651159306057e-05, -0.0012228138512000442, 0.9979615211486816], "translation": [-3.7243878770951144e-13, 1.70263803056514e-12, -17.52142906188965]}, {"children": [27], "name": "L_shoulder_017", "rotation": [-0.5077470541000366, 0.488472580909729, -0.477988600730896, 0.5245134234428406], "translation": [-5.709487438201904, -0.5717679262161255, -7.392110824584961]}, {"children": [28], "name": "L_arm_018", "rotation": [-0.0029131730552762747, -0.0044477046467363834, 0.13714520633220673, 0.9905366897583008], "translation": [4.440892098500626e-15, 1.4210854715202004e-13, -12.291044235229492]}, {"children": [29], "name": "L_elbow_019", "rotation": [-1.6754923004569378e-09, -9.386437405112247e-09, -0.0561801940202713, 0.9984206557273865], "translation": [1.932811244387267e-09, -4.58328486274695e-10, -21.162019729614258]}, {"children": [30, 34, 38, 42, 46], "name": "L_wrist_020", "rotation": [-0.006850931327790022, 0.10559552907943726, -0.04857074096798897, 0.9931986331939697], "translation": [-1.9392807359963626e-09, 4.303615241951775e-10, -25.955039978027344]}, {"children": [31], "name": "L_thumb1_021", "rotation": [0.14901216328144073, 0.46646901965141296, 0.8079150319099426, -0.3278343081474304], "translation": [2.677041530609131, -1.7097876071929932, -6.5370917320251465]}, {"children": [32], "name": "L_thumb2_022", "rotation": [-0.08583810925483704, 0.22841192781925201, -0.09725829213857651, 0.9648837447166443], "translation": [4.263256414560601e-14, -2.842170943040401e-14, -5.0468668937683105]}, {"children": [33], "name": "L_thumb3_023", "rotation": [-0.19039733707904816, 0.0523366741836071, -0.03993261232972145, 0.979497492313385], "translation": [8.526512829121202e-14, 1.4210854715202004e-14, -3.418858051300049]}, {"name": "L_thumb4_024", "rotation": [4.826000710167477e-15, 4.128641872824801e-15, -1.3877787807814457e-16, 1.0], "translation": [-4.263256414560601e-14, 5.684341886080802e-14, -3.488858699798584]}, {"children": [35], "name": "L_point1_025", "rotation": [-0.5079124569892883, 0.1239091157913208, 0.024311067536473274, 0.8521035313606262], "translation": [3.224229574203491, 0.17808310687541962, -16.91457176208496]}, {"children": [36], "name": "L_point2_026", "rotation": [-0.48813337087631226, 0.015558314509689808, 0.023859277367591858, 0.8723041415214539], "translation": [3.907985046680551e-14, -5.684341886080802e-14, -3.241945505142212]}, {"children": [37], "name": "L_point3_027", "rotation": [-0.1648842841386795, -0.007774238009005785, -0.186213418841362, 0.9685438871383667], "translation": [7.105427357601002e-15, 5.684341886080802e-14, -3.184323310852051]}, {"name": "L_point4_028", "rotation": [9.428222091933947e-15, -3.802513859341161e-15, 6.938893903907228e-17, 1.0], "translation": [4.263256414560601e-14, 8.526512829121202e-14, -2.916773796081543]}, {"children": [39], "name": "L_middle1_029", "rotation": [-0.5921013355255127, 0.06823774427175522, 0.08284896612167358, 0.7986837029457092], "translation": [-0.19561228156089783, 0.4401448667049408, -16.595863342285156]}, {"children": [40], "name": "L_middle2_00", "rotation": [-0.3649880886077881, -0.010594732128083706, -0.004153801128268242, 0.9309426546096802], "translation": [0.0, 2.842170943040401e-14, -3.8635544776916504]}, {"children": [41], "name": "L_middle3_030", "rotation": [-0.3171450197696686, -0.019831888377666473, -0.02262069471180439, 0.9478998184204102], "translation": [7.105427357601002e-15, -4.707345624410664e-14, -3.4665491580963135]}, {"name": "L_middle4_031", "rotation": [-8.543513119185775e-16, 1.2490009027033011e-15, 5.898059818321144e-17, 1.0], "translation": [0.0, 2.842170943040401e-14, -3.023348093032837]}, {"children": [43], "name": "L_ring1_032", "rotation": [-0.4420296549797058, -0.3554738163948059, -0.49427470564842224, 0.6587417721748352], "translation": [-3.2590179443359375, -0.4834827780723572, -15.925727844238281]}, {"children": [44], "name": "L_ring2_033", "rotation": [-0.020116040483117104, -0.3581004738807678, 0.001579943811520934, 0.9334650039672852], "translation": [2.842170943040401e-14, 0.0, -3.309962511062622]}, {"children": [45], "name": "L_ring3_034", "rotation": [0.008550489321351051, -0.32292112708091736, 0.0003030587686225772, 0.9463872313499451], "translation": [5.1514348342607263e-14, 1.4210854715202004e-14, -3.679807662963867]}, {"name": "L_ring4_035", "rotation": [2.1094237467877974e-15, -1.816255479347717e-15, -3.8510861166685117e-16, 1.0], "translation": [-2.842170943040401e-14, 7.105427357601002e-15, -2.8925037384033203]}, {"children": [47], "name": "L_pink1_036", "rotation": [0.09579601138830185, 0.20948396623134613, 0.9687287211418152, -0.09221871197223663], "translation": [-5.095402240753174, -2.465139627456665, -14.104875564575195]}, {"children": [48], "name": "L_pink2_037", "rotation": [0.6472674608230591, 0.01892182044684887, -0.01607578992843628, 0.7618585228919983], "translation": [7.105427357601002e-15, -2.842170943040401e-14, -2.948665142059326]}, {"children": [49], "name": "L_pink3_038", "rotation": [0.41226065158843994, 0.002411362947896123, -0.0010911551071330905, 0.9110621213912964], "translation": [-7.105427357601002e-15, 3.552713678800501e-14, -2.428715944290161]}, {"name": "L_pink4_039", "rotation": [-1.0894063429134349e-14, -2.7755575615628914e-16, -3.0237100126879603e-30, 1.0], "translation": [7.105427357601002e-15, -5.684341886080802e-14, -2.2642946243286133]}, {"children": [51], "name": "R_shoulder_040", "rotation": [-0.5139849781990051, -0.4822756350040436, 0.47101297974586487, 0.5304492712020874], "translation": [5.7094879150390625, -0.5717679262161255, -7.392110824584961]}, {"children": [52], "name": "R_arm_041", "rotation": [0.0006257742643356323, -0.025383638218045235, -0.1336720883846283, 0.9907003045082092], "translation": [-3.552713678800501e-15, 2.842170943040401e-14, -12.20331859588623]}, {"children": [53], "name": "R_elbow_042", "rotation": [-1.4244948554065218e-09, 8.856168243198681e-09, 0.07330316305160522, 0.9973098039627075], "translation": [-6.15539619275296e-09, -1.4596537312172586e-09, -21.587610244750977]}, {"children": [54, 58, 62, 66, 70], "name": "R_wrist_043", "rotation": [-0.03331230208277702, 0.04601427912712097, 0.06609141081571579, 0.9961951971054077], "translation": [6.175932654173266e-09, 1.3706369372812333e-09, -26.47702407836914]}, {"children": [55], "name": "R_thumb1_044", "rotation": [0.027582863345742226, 0.3679669499397278, 0.6764551997184753, 0.6373757719993591], "translation": [-2.677041530609131, -1.7097876071929932, -6.5370917320251465]}, {"children": [56], "name": "R_thumb2_045", "rotation": [-0.344376802444458, -0.06381271034479141, 0.0961156114935875, 0.9317157864570618], "translation": [-5.684341886080802e-14, -1.7763568394002505e-14, -5.0468668937683105]}, {"children": [57], "name": "R_thumb3_046", "rotation": [-0.0997118428349495, 0.020417965948581696, 0.0020465452689677477, 0.9948047399520874], "translation": [-1.7053025658242404e-13, 7.105427357601002e-15, -3.418858051300049]}, {"name": "R_thumb4_047", "rotation": [5.065392549852277e-15, -4.073130721593543e-15, 2.063200601173436e-29, 1.0], "translation": [0.0, 6.394884621840902e-14, -3.488858699798584]}, {"children": [59], "name": "R_point1_048", "rotation": [-0.1516624540090561, 0.018798040226101875, 0.050091248005628586, 0.9869832992553711], "translation": [-3.224229574203491, 0.17808310687541962, -16.91457176208496]}, {"children": [60], "name": "R_point2_049", "rotation": [-0.3799976110458374, 0.06997305154800415, -0.05643190070986748, 0.920609176158905], "translation": [-5.3290705182007514e-14, 0.0, -3.241945505142212]}, {"children": [61], "name": "R_point3_050", "rotation": [-0.3450610935688019, 0.019967397674918175, -0.005906570237129927, 0.9383492469787598], "translation": [1.7763568394002505e-15, 0.0, -3.184323310852051]}, {"name": "R_point4_051", "rotation": [1.0361503322009469e-14, 3.823330541052883e-15, 9.71445146547012e-17, 1.0], "translation": [-3.907985046680551e-14, 9.947598300641403e-14, -2.916773796081543]}, {"children": [63], "name": "R_middle1_052", "rotation": [-0.574062705039978, -0.049321498721838, -0.030583718791604042, 0.8167522549629211], "translation": [0.19561228156089783, 0.4401448667049408, -16.595863342285156]}, {"children": [64], "name": "R_middle2_053", "rotation": [-0.5025473237037659, 0.11388061940670013, -0.09993374347686768, 0.8511701822280884], "translation": [-4.440892098500626e-14, 1.7053025658242404e-13, -3.8635544776916504]}, {"children": [65], "name": "R_middle3_054", "rotation": [-0.4876907765865326, -0.020127899944782257, -0.011247917078435421, 0.8727118968963623], "translation": [2.842170943040401e-14, -4.973799150320701e-14, -3.4665491580963135]}, {"name": "R_middle4_055", "rotation": [-3.354996280791056e-10, -1.5243547535348512e-09, 1.4901161193847656e-08, 1.0], "translation": [9.217330898536602e-09, -2.028656354013947e-09, -3.023348093032837]}, {"children": [67], "name": "R_ring1_056", "rotation": [-0.43906837701797485, 0.3644316792488098, 0.4263281524181366, 0.7018923163414001], "translation": [3.2590179443359375, -0.4834827780723572, -15.925727844238281]}, {"children": [68], "name": "R_ring2_057", "rotation": [-0.019660433754324913, 0.49235618114471436, -0.004540769383311272, 0.870159924030304], "translation": [-1.4210854715202004e-13, -5.684341886080802e-14, -3.309962511062622]}, {"children": [69], "name": "R_ring3_058", "rotation": [0.008522872813045979, 0.436832994222641, 0.0007505573448725045, 0.8995019197463989], "translation": [-3.552713678800501e-14, 1.4210854715202004e-14, -3.679807662963867]}, {"name": "R_ring4_059", "rotation": [1.9845236565174673e-15, 1.904726376622534e-15, -3.0531133177191805e-16, 1.0], "translation": [2.842170943040401e-14, -7.105427357601002e-15, -2.8925037384033203]}, {"children": [71], "name": "R_pink1_060", "rotation": [-0.13494335114955902, 0.5801769495010376, 0.7614665627479553, 0.2556440532207489], "translation": [5.095402240753174, -2.465139627456665, -14.104875564575195]}, {"children": [72], "name": "R_pink2_061", "rotation": [0.5647534132003784, 0.03652970492839813, 0.03794889524579048, 0.8235769867897034], "translation": [-1.9184653865522705e-13, -1.0373923942097463e-12, -2.948665142059326]}, {"children": [73], "name": "R_pink3_062", "rotation": [0.515356719493866, -0.002268201904371381, 0.0013640274992212653, 0.856971800327301], "translation": [2.842170943040401e-14, 5.684341886080802e-14, -2.428715944290161]}, {"name": "R_pink4_063", "rotation": [-3.455481387137915e-11, 3.148832083965658e-09, 2.786438295340414e-17, 1.0], "translation": [-1.4259768477131729e-08, -1.5654677554266527e-10, -2.2642946243286133]}, {"children": [75], "name": "neck_064", "rotation": [-0.11908817291259766, -0.0004860428743995726, -0.0006255402695387602, 0.9928833842277527], "translation": [4.0702510806234216e-13, 2.042810365310288e-12, -17.396268844604492]}, {"children": [76, 77, 78, 80], "name": "head_065", "rotation": [0.12734341621398926, -0.0005949734477326274, 0.008852382190525532, 0.9918190240859985], "translation": [1.5210055437364645e-14, 7.105427357601002e-15, -10.80035400390625]}, {"name": "L_eye_066", "rotation": [-1.6030568872338335e-08, 0.7128214836120605, -0.7013455033302307, -1.26888375362455e-08], "translation": [-3.301797389984131, -8.104522705078125, -7.362905025482178]}, {"name": "R_eye_067", "rotation": [-1.6030568872338335e-08, 0.7128214836120605, -0.7013455033302307, -1.26888375362455e-08], "translation": [3.3017966747283936, -8.104522705078125, -7.362905025482178]}, {"children": [79], "name": "jaw_068", "rotation": [-0.7622197866439819, 0.008407778106629848, -0.006350586656481028, 0.6472325325012207], "translation": [-1.87381417049437e-08, -4.765388011932373, 0.6522318720817566]}, {"name": "lip_069", "rotation": [0.0031319200061261654, 1.1888536225143653e-16, 1.795076558702146e-17, 0.9999951124191284], "translation": [3.885780586188048e-16, 0.0, -6.040013313293457]}, {"name": "tip_070", "rotation": [8.916478666520788e-16, -2.2288486160870757e-16, 7.450580152834618e-09, 1.0], "translation": [1.5709655798445965e-14, 2.842170943040401e-14, -17.465932846069336]}, {"name": "aimer", "translation": [-20.644702911376953, 142.61500549316406, 282.29376220703125]}, {"children": [83, 84, 85, 87], "name": "mainfootcontrol"}, {"name": "L_leg_Pole", "rotation": [0.3811969459056854, 0.4954008460044861, 0.6273576021194458, -0.46442368626594543], "translation": [10.687838554382324, 79.73680877685547, 86.16493225097656]}, {"name": "R_leg_Pole", "rotation": [-0.3811969459056854, 0.4954008460044861, 0.6273576021194458, 0.46442368626594543], "translation": [-10.78960132598877, 79.73680877685547, 86.16493225097656]}, {"children": [86], "name": "R_footcontrol", "rotation": [7.951201363987082e-10, -0.001473970478400588, -1.0535551986379232e-08, 0.999998927116394], "translation": [-10.0, 17.345727920532227, -10.02096939086914]}, {"name": "R_ankle_Goal", "rotation": [-0.5482166409492493, 0.693935215473175, 0.33252355456352234, 0.32762861251831055], "translation": [0.0, -7.105427357601002e-15, 0.042893439531326294]}, {"children": [88], "name": "L_footcontrol", "rotation": [0.0, 0.0034906514920294285, 0.0, 0.9999939203262329], "translation": [10.0, 17.28704261779785, -10.020999908447266]}, {"name": "L_ankle_Goal", "rotation": [0.5482166409492493, 0.693935215473175, 0.33252355456352234, -0.32762861251831055], "translation": [7.105427357601002e-15, 0.0, 5.329070518200751e-15]}, {"children": [90], "name": "maincontrol"}, {"children": [91, 92, 93], "name": "hipcontrol", "rotation": [-8.653488435985925e-17, 0.7330865859985352, -0.6801353096961975, -3.242331693477686e-18], "translation": [-9.535483991627127e-16, 95.75232696533203, -9.244424819946289]}, {"name": "headcontrol", "rotation": [0.0423072874546051, -0.0002995209360960871, 0.007073136977851391, 0.9990795850753784], "translation": [-1.136650960799259e-14, 2.541706085205078, -69.78639221191406]}, {"name": "ropecontrol", "rotation": [-5.3471571994885827e-17, 0.9855713844299316, 0.16926029324531555, -5.0409279884043064e-17], "translation": [-1.304607629776001, -17.81633949279785, 18.191587448120117]}, {"children": [94], "name": "spinecontrol", "rotation": [-6.938893903907228e-18, 9.138573120658255e-18, -1.2177890620859602e-16, 1.0], "translation": [-2.588627978015708e-15, 7.105427357601002e-15, -23.339771270751953]}, {"children": [95, 98, 110], "name": "chestcontrol", "rotation": [0.046041496098041534, 8.682734915055335e-05, -0.001883846940472722, 0.9989378452301025], "translation": [-3.1353928276660423e-15, 3.4917469024658203, -17.543746948242188]}, {"children": [96, 97], "name": "L_arm_Goal", "rotation": [0.6452901363372803, -0.6096460223197937, 0.31545290350914, -0.33529388904571533], "translation": [-18.016706466674805, -1.6235395669937134, -7.082608699798584]}, {"name": "L_wrist_Goal", "rotation": [0.2860448956489563, 0.08076959103345871, 0.060056451708078384, 0.9529155492782593], "translation": [0.91377192735672, 27.512012481689453, -38.94888687133789]}, {"name": "L_arm_Pole", "rotation": [-0.040065113455057144, -0.17458127439022064, -0.0073280190117657185, 0.9838001132011414], "translation": [-30.421520233154297, 8.735642433166504, -14.690255165100098]}, {"children": [99, 109], "name": "R_arm_Goal", "rotation": [0.6452901363372803, 0.6096460223197937, -0.31545290350914, -0.33529388904571533], "translation": [17.562599182128906, -1.8484594821929932, -7.0658278465271]}, {"children": [100], "name": "R_wrist_Goal", "rotation": [0.27212730050086975, 0.035768430680036545, 0.01581491529941559, 0.9614661931991577], "translation": [0.9042108058929443, 28.982952117919922, -41.2363166809082]}, {"children": [101, 103, 107], "name": "smglow", "rotation": [-0.6690249443054199, 0.742752730846405, -0.026622138917446136, 0.003913705702871084], "translation": [-2.355712652206421, -3.606966733932495, -12.4985990524292]}, {"children": [102], "name": "base", "rotation": [1.3877787807814457e-17, -4.336808689942018e-18, 6.018531076210112e-35, 1.0], "translation": [5.684341886080802e-14, -7.638334409421077e-14, 7.105427357601002e-14]}, {"mesh": 2, "name": "base_smgLow_0"}, {"children": [104, 105], "name": "mag", "rotation": [1.3877787807814457e-17, -4.336808689942018e-18, 6.018531076210112e-35, 1.0], "translation": [0.0, -6.017068862915039, 14.54125690460205]}, {"mesh": 3, "name": "mag_smgLow_0"}, {"children": [106], "name": "bullet", "rotation": [1.3877787807814457e-17, -5.204170427930421e-18, 1.3877787807814457e-17, 1.0], "translation": [-1.9895196601282805e-13, 11.564671516418457, 0.17461718618869781]}, {"mesh": 4, "name": "bullet_smgLow_0"}, {"children": [108], "name": "bolt", "rotation": [1.3877787807814457e-17, -4.336808689942018e-18, 6.018531076210112e-35, 1.0], "translation": [5.684341886080802e-14, 8.05135440826416, 16.365249633789062]}, {"mesh": 5, "name": "bolt_smgLow_0"}, {"name": "R_arm_Pole", "rotation": [-0.040065113455057144, 0.17458127439022064, 0.0073280343785882, 0.9838001132011414], "translation": [36.3038330078125, 9.990670204162598, -16.541667938232422]}, {"name": "neckcontrol", "rotation": [-0.09935309737920761, 2.2111572741924856e-16, 2.0770252063939084e-17, 0.9950523376464844], "translation": [-1.1449174941446927e-15, -0.4664330780506134, -17.3900146484375]}, {"name": "body", "translation": [-1.3151981830596924, 103.17961883544922, 16.264249801635742]}, {"name": "head_2", "translation": [0.0, 160.8173065185547, 8.952719688415527]}], "samplers": [{"magFilter": 9729, "minFilter": 9987, "wrapS": 10497, "wrapT": 10497}], "scene": 0, "scenes": [{"name": "Sketchfab_Scene", "nodes": [0]}], "skins": [{"inverseBindMatrices": 36, "joints": [5, 10, 11, 12, 13, 14, 15, 16, 17, 18, 19, 20, 21, 22, 23, 24, 25, 26, 27, 28, 29, 30, 31, 32, 33, 34, 35, 36, 37, 38, 39, 40, 41, 42, 43, 44, 45, 46, 47, 48, 49, 50, 51, 52, 53, 54, 55, 56, 57, 58, 59, 60, 61, 62, 63, 64, 65, 66, 67, 68, 69, 70, 71, 72, 73, 74, 75, 76, 77, 78, 79, 80], "skeleton": 5}], "textures": [{"sampler": 0, "source": 0}, {"sampler": 0, "source": 1}, {"sampler": 0, "source": 2}, {"sampler": 0, "source": 3}, {"sampler": 0, "source": 4}, {"sampler": 0, "source": 5}, {"sampler": 0, "source": 6}, {"sampler": 0, "source": 7}, {"sampler": 0, "source": 8}]}