{"accessors": [{"bufferView": 2, "componentType": 5126, "count": 1624, "max": [38.251712799072266, -2.036133050918579, 52.59061050415039], "min": [-52.73480987548828, -180.18289184570312, -13.394474983215332], "type": "VEC3"}, {"bufferView": 2, "byteOffset": 19488, "componentType": 5126, "count": 1624, "max": [0.999328076839447, 0.9978677034378052, 0.9960662126541138], "min": [-0.995364248752594, -0.999991238117218, -0.990490198135376], "type": "VEC3"}, {"bufferView": 1, "componentType": 5126, "count": 1624, "max": [0.9941492080688477, 0.9749192595481873], "min": [0.5975062251091003, 0.011541469022631645], "type": "VEC2"}, {"bufferView": 0, "componentType": 5125, "count": 2472, "type": "SCALAR"}, {"bufferView": 2, "byteOffset": 38976, "componentType": 5126, "count": 1482, "max": [50.64314651489258, 13.033555030822754, 48.12101364135742], "min": [-26.432308197021484, -179.5943145751953, -13.786157608032227], "type": "VEC3"}, {"bufferView": 2, "byteOffset": 56760, "componentType": 5126, "count": 1482, "max": [0.9987115263938904, 0.9999788999557495, 0.9962051510810852], "min": [-0.9996200799942017, -0.9999904036521912, -0.9922219514846802], "type": "VEC3"}, {"bufferView": 1, "byteOffset": 12992, "componentType": 5126, "count": 1482, "max": [0.9830477833747864, 0.9907212257385254], "min": [0.006437129341065884, 0.07096169143915176], "type": "VEC2"}, {"bufferView": 0, "byteOffset": 9888, "componentType": 5125, "count": 2298, "type": "SCALAR"}, {"bufferView": 2, "byteOffset": 74544, "componentType": 5126, "count": 1425, "max": [29.94936752319336, 13.073012351989746, 42.56224060058594], "min": [-43.504356384277344, -180.18296813964844, -7.273313045501709], "type": "VEC3"}, {"bufferView": 2, "byteOffset": 91644, "componentType": 5126, "count": 1425, "max": [0.9999393820762634, 0.9999350905418396, 0.9978964924812317], "min": [-0.9989745020866394, -0.9999903440475464, -0.9964974522590637], "type": "VEC3"}, {"bufferView": 1, "byteOffset": 24848, "componentType": 5126, "count": 1425, "max": [0.9876850247383118, 0.9889524579048157], "min": [0.020404130220413208, 0.01016266644001007], "type": "VEC2"}, {"bufferView": 0, "byteOffset": 19080, "componentType": 5125, "count": 2202, "type": "SCALAR"}], "asset": {"extras": {"author": "Rachelle Ete (https://sketchfab.com/RachelleEte)", "license": "CC-BY-4.0 (http://creativecommons.org/licenses/by/4.0/)", "source": "https://sketchfab.com/3d-models/peasant-family-2-lowpoly-character-ccf3af01b8744f59b352dfb74af97212", "title": "Peasant Family #2 lowpoly character"}, "generator": "Sketchfab-15.53.0", "version": "2.0"}, "bufferViews": [{"buffer": 0, "byteLength": 27888, "name": "floatBufferViews", "target": 34963}, {"buffer": 0, "byteLength": 36248, "byteOffset": 27888, "byteStride": 8, "name": "floatBufferViews", "target": 34962}, {"buffer": 0, "byteLength": 108744, "byteOffset": 64136, "byteStride": 12, "name": "floatBufferViews", "target": 34962}], "buffers": [{"byteLength": 172880, "uri": "scene.bin"}], "images": [], "materials": [{"doubleSided": true, "name": "characters", "pbrMetallicRoughness": {"baseColorTexture": {"index": 0}, "metallicFactor": 0.0, "roughnessFactor": 0.8929713596}}, {"doubleSided": true, "name": "character_peasant2", "pbrMetallicRoughness": {"baseColorTexture": {"index": 1}, "metallicFactor": 0.0, "roughnessFactor": 0.8929713596}}], "meshes": [{"name": "peasant girl_characters_0", "primitives": [{"attributes": {"NORMAL": 1, "POSITION": 0, "TEXCOORD_0": 2}, "indices": 3, "material": 0, "mode": 4}]}, {"name": "peasant man1_character_peasant2_0", "primitives": [{"attributes": {"NORMAL": 5, "POSITION": 4, "TEXCOORD_0": 6}, "indices": 7, "material": 1, "mode": 4}]}, {"name": "peasant woman1_character_peasant2_0", "primitives": [{"attributes": {"NORMAL": 9, "POSITION": 8, "TEXCOORD_0": 10}, "indices": 11, "material": 1, "mode": 4}]}], "nodes": [{"children": [1], "matrix": [1.0, 0.0, 0.0, 0.0, 0.0, 2.220446049250313e-16, -1.0, 0.0, 0.0, 1.0, 2.220446049250313e-16, 0.0, 0.0, 0.0, 0.0, 1.0], "name": "Sketchfab_model"}, {"children": [2], "matrix": [1.0, 0.0, 0.0, 0.0, 0.0, 0.0, 1.0, 0.0, 0.0, -1.0, 0.0, 0.0, 0.0, 0.0, 0.0, 1.0], "name": "84fa28f43a5147e38f9b8b5687a7eaab.fbx"}, {"children": [3, 6, 9], "name": "RootNode"}, {"children": [4], "matrix": [0.652577750753376, 7.99177247959304e-17, -0.2320139014730409, -0.0, -2.877386023164358e-09, 0.6925952434539795, -8.093127315965354e-09, -0.0, -0.22309081209392082, -8.259072779404877e-09, -0.6274800753131214, -0.0, -667.521728515625, 0.75762939453125, -683.7401123046875, 1.0], "name": "peasant girl"}, {"children": [5], "matrix": [1.0, 0.0, -0.0, 0.0, 0.0, 1.0, 0.0, 0.0, 0.0, 0.0, 1.0, 0.0, 7.241489410400391, 91.1094970703125, -19.598054885864258, 1.0], "name": "Object_4"}, {"mesh": 0, "name": "peasant girl_characters_0"}, {"children": [7], "matrix": [0.9967661282236516, 1.220686451906861e-16, -0.3548625332084453, -0.0, -4.231692845454724e-09, 1.0580500364303587, -1.1886315317946659e-08, -0.0, -0.3548625332084453, -1.2617121385158575e-08, -0.9967661282236517, -0.0, -728.0940551757812, 40.97076416015625, -665.3388671875, 1.0], "name": "peasant man1"}, {"children": [8], "matrix": [1.0, 0.0, -0.0, 0.0, 0.0, 1.0, 0.0, 0.0, 0.0, 0.0, 1.0, 0.0, -12.10538101196289, 83.28038024902344, -17.167442321777344, 1.0], "name": "Object_7"}, {"mesh": 1, "name": "peasant man1_character_peasant2_0"}, {"children": [10], "matrix": [0.9420783361965555, 1.1537132240625049e-16, -0.3353929165458476, -0.0, -3.999520543538475e-09, 1.0, -1.1234171498533389e-08, -0.0, -0.3353929165458476, -1.1924880453767502e-08, -0.9420783361965553, -0.0, -800.3692626953125, 35.69378662109375, -650.231201171875, 1.0], "name": "peasant woman1"}, {"children": [11], "matrix": [1.0, 0.0, -0.0, 0.0, 0.0, 1.0, 0.0, 0.0, 0.0, 0.0, 1.0, 0.0, 6.777468204498291, 83.55496215820312, -17.644468307495117, 1.0], "name": "Object_10"}, {"mesh": 2, "name": "peasant woman1_character_peasant2_0"}], "samplers": [{"magFilter": 9729, "minFilter": 9987, "wrapS": 10497, "wrapT": 10497}], "scene": 0, "scenes": [{"name": "Sketchfab_Scene", "nodes": [0]}], "textures": []}